<mxfile host="www.draw.io" modified="2023-09-20T11:59:26.209Z" agent="Mozilla/5.0 (Windows NT 10.0; Win64; x64) AppleWebKit/537.36 (KHTML, like Gecko) Chrome/117.0.0.0 Safari/537.36 Edg/117.0.2045.31" etag="_KlbUtTt6hmlNtHxc94u" version="21.7.5" type="device">
  <diagram name="Page-1" id="R8lJkGn9u2cPZaPG0IeU">
    <mxGraphModel dx="3600" dy="2730" grid="1" gridSize="10" guides="1" tooltips="1" connect="1" arrows="1" fold="1" page="1" pageScale="1" pageWidth="850" pageHeight="1100" math="0" shadow="0">
      <root>
        <mxCell id="0" />
        <mxCell id="1" parent="0" />
        <mxCell id="91VObT-NkFJwBAb2Qbbx-1" value="" style="shape=image;verticalLabelPosition=bottom;labelBackgroundColor=default;verticalAlign=top;aspect=fixed;imageAspect=0;image=data:image/png,iVBORw0KGgoAAAANSUhEUgAAAc4AAAETCAYAAAC/RuZBAAAAAXNSR0IArs4c6QAAAARnQU1BAACxjwv8YQUAAAAJcEhZcwAADsMAAA7DAcdvqGQAAGvBSURBVHhe7d0H2C1FkTfw8TOsYVHETFBBAQVWQSQIKEEkKUhQREEREQElRyVJEJAMAgqS3CtBMiqSBAVEkiRBkCxgRDCxuq664ePX3Lr2Pfe87z3nhvOeUP/nmWfOmenp6enuquqqrq5+1lNPPfV/TSKRSCQSiY7w/yafE4lEIpFIdIAUnIlEIpFIdIEUnIlEIpFIdIEUnIlEIpFIdIEUnIlEIpFIdIEUnIlEIpFIdIEUnIlEIpFIdIEUnIlEIpFIdIEUnIlEIpFIdIEUnIlEIpFIdIEUnIlEIpFIdIEUnIlEIpFIdIEUnIlEIpFIdIEUnIlEIpFIdIEUnIlEIpFIdIEUnIlEIpFIdIEUnIlEIpFIdIEUnIlEIpFIdIEUnIlEIpFIdIEUnIlEIpFIdIEUnIlEIpFIdIEUnIlEIpFIdIEUnIlEIpFIdIEUnIlEIpFIdIEUnIlEIpFIdIEUnIlEIpFIdIEUnIlEIpFIdIEUnIlEIpFIdIEUnIlEIpFIdIEUnIlEIpFIdIEUnIlEIpFIdIEUnIlEIpFIdIEUnIlEIpFIdIEUnIlEIpFIdIEUnIlEIpFIdIEUnIlEIpFIdIEUnIlEIpFIdIEUnIlEIpFIdIEUnIlEIpFIdIEUnIlEIpFIdIEUnIlEIpFIdIEUnIlEIpFIdIEUnIlEIpFIdIEUnIlEIpFIdIEUnIlEIpFIdIEUnIlEIpFIdIEUnIlEIpFIdIEUnIlEIpFIdIEUnIlEIpFIdIEUnIlEIpFIdIEUnIlEois861nPKsf//d//Nf/zP//T/PWvf23+8Y9/THUvkRhmpOBMJBJd4b//+7+bxx57rNlqq62aeeedt3n1q1/dvOpVr2q22GKL5tFHHy0CNZEYZjzrqaeeyl6eSCQ6xq233tpsueWWzQMPPFD+E5ShZb7iFa9ojjjiiGbttddu/t//y3F5YjiRgjORSHQEwvE3v/lNs9hiizV/+9vfJl995nqcHQsuuGBzwQUXNK95zWua+++/v/nVr37VzD333M2b3/zm5n//93+b5zznOeWcSAwqckiYSCQ6gvnMiy++eMp8ZiBMs8997nOb1VZbrdlss82a888/v1looYWaZZddttlggw3KmVn3+OOPb/7jP/4jzbmJgUYKzkQiMSZqM6zfNMha6MW9OeaYozn11FObVVddtQjH/fbbr3niiSdKWtql81NPPdXsv//+zVFHHVWeqfNOJAYJaapNJBJtQahxBLrjjjua3//+982LX/zi5vTTT28mTZo0OUXTvPKVr2zWXXfdZuWVVy6C87vf/e5Ugtbv2izrP1PtVVdd1Sy++OKTryYSg4XUOBOJxDQg9MxNbrPNNsXU+sEPfrBokrWW+LrXva457LDDiul18803b6688spyHaR79rOfXc41QhiffPLJk68kEoOHFJyJRGIqhGDcc889mzPOOKNom7XWGL/nnHPOIjTPPvvs5j//8z+nCMmXvvSlZanKzTff3GyyySblf+QZz1rO8ve//32qfBOJQUEKzkQiMQ14xV500UWT/02LEJK1Rvn85z+/2X777Zt99923+fOf/1yWpLhvTnPjjTcuzkMEqGvS0khzyUpiEJG9NpFITAWm1EMOOaQrbdDSE6ZagnCXXXYpc6G//vWvi8a69dZbNwsvvHBz0003NW94wxuK8HzXu941RXDWwjeRGASk4EwkElOBtvjkk09OI9DC3FqfX//615d5znvuuaes7/zYxz7WrL/++s0LX/jCKc8Lyff5z3++RBbaYYcdmr333rvZdNNNyz1LXCK/RGJQkIIzkUhMhec973nlaEUIQoLOQVtcbrnlmk984hPFU9a1+eefvznmmGOK1+xSSy01xRTr2dtvv73Zfffdm8svv7z5wx/+MOV6IjFoSMGZSCSmwgte8IISyKAVNEeetC95yUvKf0KPwCQcw6zrt/lL/8137rbbbiViUJhkORFxGlprrbWaW265pcx7JhKDhhSciURiGvCoZYYN7dJx4403Nj/72c+ar3/9680HPvCBtkIvNEieuJ/85Ceb66+/vgjQz372s0XIuu/4+c9/3hx44IHpVZsYSKTgTCQSU4Fgs+MJ71hB20Nw/ulPfyrOPoSmgAcHHHDAFFNsKwhE8WyvvfbaonVaksIZKOAdP/jBD5q777578pVEYnCQgjORSEwFQpJgW2+99ZozzzyzrMVkfg0QiNttt13ZBeW8884r6zEDBCnnIvFsCU/5OLfTLKURlSiRGDSk4EwkEtOA8ATBDeaZZ56iOQq5B+5ZsnLFFVcUcywv2hCOQu6ts846ze9+97uSNkCAJhLDghSciURiGhB05iEvueSSsqaThmlO0lISc5/h7MOk+/a3v70IWGH5CFFORJ3AkhWet4nEoCEFZyKRaItHHnmkmF1pkhyDdt111+aaa65pTjjhhPJ72223Lb/vu+++Zueddy4BEAjT0Fah/g3+x7X3vOc9zQILLFB+JxKDhBSciURiKoRgo1WGoCMQw9lnzTXXLIELrNnccMMNm8suu6z5y1/+MkVozjXXXMURKPKB1jnOJZZYYoqnbSIxaEjBmUgkpgIB6HjjG99YArmH4AxB6PeRRx5ZQuv913/9VxGKhKz1nzvttFNxJuJUVAvOEMKEKu30lFNOaRZZZJFpBGoiMQhIwZlIJKYBIfeqV72q2Wijjab8J+RCqIYgde1f/uVfmoUWWqjMc/K+tRWZyEGRXjrh+B5++OHmwQcfbPbZZ58ilCPfRGLQkBtZJxKJMSHSDy3ynHPOKZ60QHsM0Bo322yzsr2YHVV+8pOflOu1JklrZc6VNpEYBqTgTCQSY4LGaJ0mJ6CDDjqomGZpiS960YtKdKGll166+cxnPtPcf//9UwlLzwUWXXTR4jjEizY1zMQwIAVnIpHoCARozGmaz2SiJRDteiLEHoRpNs4iBp100knFgzaRGBak4EwkEh0jNMbQKJlvzz333GarrbaaIizBb8HgORFZ35lIDBNScCYSiY4QmmT9O86CJdhOzByna+YzmXCt04x09fOJxCAjBWcikZglIBRDMIagTCSGEbkcJZFIzBIQlDxuY81mIjGsSMGZSCQSiUQXSMGZSCQSiUQXSMGZSCQSiUQXSMGZSCQSiUQXSMGZSCQSiUQXSMGZSCQSiUQXSMGZSCQSiUQXSMGZSCQSiUQXSMGZSCQSiUQXGNmQe0KDiXBip4ff/va3zc0331x2eLj99tsnp0gMK+abb77mNa95TYmnusQSS2T81MkQ7ed//ud/yhZhd999d/Nv//ZvzRve8Ibm2c9+drnv3o9//ONmrrnmal7/+teX9OjHrimuo5+3ve1tzSte8YpCW+rVbiq33HJL8+Y3v7k8B56zz+ePfvSj5m9/+1tpg5e//OXlPfXWZONBHhHi74EHHmjuu+++5he/+EUpe7Znf2COOeYodDbPPPOUjcz1pWHBSMeqRWDf+c53muOPP7555JFHmqWWWqqZe+65J99NDCv++Mc/NnfccUdh7tp8//33Lzt5JJrmC1/4QnPmmWc2Tz75ZPPKV76ybAd21FFHFVqxWfX6669fBORtt91Wrj3NP5rddtutueKKK4qQRD+f+9znmg984AMlv6uuuqrZfPPNm+23377ZYYcdisB78MEHy7WHH364COPXve51zde//vVmwQUX7EroSXvcccc15513XinvO9/5zrKNWTd5JGYvHnrooRL4/1WvelXz2c9+tlljjTUm3xlsjLTgvOGGG5rdd9+9mX/++ZsDDjigee1rXzv5TmJYEZqK7bAmTZpUjmWWWaa0//Oe97zJqUYT1157bbP22msXgUmjpMH98pe/bP793/+9WW+99YplZqWVVmp+9atflcGHgccXv/jF5uCDD24WXnjh5l//9V8Lk6Q9XnLJJUUgnn/++c1mm21WhOY+++xT6n3VVVdtfvrTnzYLLbRQ2dPTM29605uaq6++eop2Ox604T/+8Y8i4L/0pS8VZrzzzjsXjZbG6n6iP4DWfve735VNz1n1Tj755GbJJZecfHdwMbJznH/+85/LyHj55ZdvTjvttBSaI4LQRp7znOc0n/jEJ5rDDjusDKAQNHRqKhxGGEQYPBhMEnz77rtv88IXvrAIP1B3jqgjZ5qmNN/61reayy+/vNlwww3LFmOELm0yBioh0O69997m8ccfL9rlhRdeWCw+b3/725s777yz+dnPflbynR7kixl/5StfKVuX7bffflM0zRSa/QXtYSD15S9/uVghdtxxx9L+gz7AGVnBabSq8T72sY+VkXNi9IBwmWrf/e53F8Fprq4TjWdYwQT7/Oc/vwg19fDqV7+6DDAIqb/+9a+TUz0DdUdQEZIEJ1OcZ971rneVe8yw6KqVOcqH1mn+i2ZLUNNMwWC2E8jXgOeNb3xj2SR7lNtsUKCNPv7xj5e2/8Y3vjFNvxg0jKTE0HjMBuZjEF9idIH5M9VyUqEN+T+q8O1xEE7t6iIYXmgMkZ4W6Ox6XIv7EM/FPYhrkS7+d4If/OAHxamI0I78Ev0LbTvvvPMWCx//gr/85S8D3W4jKTjNj/zhD38oXl7Pfe5zJ19NjCIQr7k2eOyxx8p5VPGyl72sOPgwpWF0PF/VDy30BS94wTQCzpl2SlMN/PrXvy7Xmedqc5znCOMXvehFRYtFg5gngesMnTpooV2OSga+7bTaRP8hhOQCCyxQrA4GqoPcbiNro0yCS2DsYeYLgRAEPop473vfWwSauU3mtEMOOaQIqLXWWqvUi/oy0KTlRV3xZPXbsxyseOXyF7CUJegLrXlOessTLAeyfMTc5IEHHth8+9vfLs5BhG03kG9icKD9DZqcB53WhrrnRQO1g3tJeKONmrGD/2P1l2GA7xyPWRF+vFN5zX7qU58qa5r933jjjUu98FrlOBTOQrD11lsXp4/rr7++Ofzww8s8MYEby7pWWGGFZtttty3CVx7WeJ5wwgll/tSZVyyhefrppxdtNDGcCLqK8yALTRhayaGBHEbJ4yEaMpEYdkyPWXHU2WuvvYpH7MUXX1zOlpCEQKMtfOQjHylzwgHmVeugOQN9//vfb37zm98UIRmDEVokTVRghKA1UyQ33nhjCZpw6623Ntdcc00xl3dDi0HficHDMLTdUKtcGmfQRzaJxKzEeFaWYGYvfvGLiwmW5ytTdgw+g+ERoDWYYQlIwtF8aCtarTvy9Iz104QogT29AW4i0U8YOsGJSC2uNjI2qmU6gvEYRqeoR0neE0J5IoTzWO+c0e+svy0w1jtcl34ivrtbRFkTz5hVaZSccWJ+N9ow2lP/QTMccMx31gKNUwdHIEfQFXjOPVGEPB91zvHHNXkJmFDnJY3503AMmhX02a+YXf0v2g6yj/cWQ9dbdSCjXiG4BDhw3HXXXVN1shlBELZ8gjFwifeemcn7iSeeKMsgugWPR4vHRXsJzCjxKH87xtXuumvmvjDKfiPW1nbwXxlbr48itCPN7rrrrms23XTTMk9JkKkf9+o6EsyAJigMHkjjuTXXXLNECHLIQ5jK6AMHHXRQWROrX4DrJ554YrPccssVz9u3vvWtzR577FGEKDDpmlNdd911i4flMEMsXWthu4V1rT/84Q8n//sn0L45ZW2mDZ2zj/cWQyU4g4i5PC+++OKlM2HyYmkeeuih5d6MQL6ilAg3xtkBsZuf+epXv1qincxMp7UEwtxQlL1THHHEESWgtZF8gIZgOYG8uikTzYAG0VoG5TI/1ZrXN7/5zb5bh6UsmAimAqecckqJCAX9VM6JgrZ9//vfX+qCxsgxh1OPgZv2rwdIBoPWOseylEcffbQ4BaElQtCylUsvvbQ4Dqlzz0pDGIYwFiQ+5kvFuzWYNReKjqTRT//0pz+VPjzMglPdGtyKz9tKX9ODdorBSw3tw5lKW26xxRbFwpboLSZEcOpAs4OZRZ7OK6+8cplH8S5EKoSYKEFXXnnlFObaKXRSIz+M+Hvf+14hfqNuDIDgMvrDKBAJhhOhw7xbZBUMyDu54LunDOJ+KqdDPuCaNDXcQxhG/Mxe8pSf9xkgiHoToEVgToQ6QUiQCvSA4ckHwYV263+MhAlHSwIwvwCiNdhg8gbfqQzSeNahLPKkedfl9k3SqSuMUV60k/hedUAzMaLmwWlBtDIqLwbjPe5LC+KleofvBt+mXtULpoQBq3tMxnIIdfPRj360uemmm0r+nSDeNazQXoSeRei+NfqD9iVEBeMORNs6QL/UBuYwtQ0Ljt0uBHBHW9JH/YX2it7AcpOzzjqrBGMXl1bfDEEZzwxC3asL36k/64v6nGvqBm34Loc+LE30S/XhOfVkN5h77rmnPBffjAbxFrQN7umzBq3qXL8OoF1p0Y3nHUIOiiusHJ6zE41+733u40feywHLPXnI02+xgQ1seo1+bu+6bcbD1LP8PUI0qI6GYWKys7oyda6oBGfAbAkDZiNMoxOE8LHmLEKD2SZHvg4BsI2ov/a1rxXzFYZC0FoLp4OKxym9dW2f/vSnmxVXXLGsZbvgggsKk48y0uC48ZuHirpw76STTiqeh1z27VIh1Bhhh9BoC8onvfkqQoeQsgidUKURWDOHOLzfsgKMbO+99y6EpQwf+tCHCtNUJnXiGxE65mhwwIGDeW2rrbZqll566eacc84pBIohEIZ2FnnHO95RmKMzgUUIn3322cV0p4292+CChyaoM2UxmFAWmhAh6LuUA9Qnho7RYLrimdIi5cF5xUibBQCsObQUgmcnZkXA8tJUZ76t0x1vCH9MR98cNuhL+mNrWDv9R5ti9LvsskvxmI0+CfqC5/QXUba0u0M7iS9rnlJwhFboG5yIIjKXkHzy1T7ygnjHIEA90LKZsdG4OjvmmGPKQOKMM84olijB6n2jvqdeCSbBzUEgfDvL4HcGIPov+hPr15ZrkyZNKrSJjmn3Bv76IoEIpmWEhVx99dVLvmLzAjqx3AedCSPKnG5gimfhN57BKywlMrBGJ+LGogvb6hn8GDj3GngEelNf/QT8T/vhZQZ6oJ+2lrPnghPRcHXHPBEWJmjuZVZXoPfo7K35hraiY3cCz2Mc9V6CjiB6xLDBBhuU0Tyi0BlpS5gvBuO3EbY8vHu77bYr30xoxsjRGdNCFHUIQAKKgxOB4Z12nzj33HPL9jwYl/QR3Nq3CkFGyLluxMoMvNNOO5Wy2MVCXM8tt9yy1D1hTAgjWvNZhH/9bnUUuxhcdNFFZVE7Qew7PvnJT5b3IWBLD5j8jI7tUrHKKqsUjVzeBKZ0mEOt5Wsb+SiXNGJYqjuM49RTTy3PCM1lYKCeMAMdGQMwUsZUDAjsuCEPlgT17DvEP1UGeSAAxCl+aidMWp8w8BhG02F8v3qvEfRh0BIaTlyD6OvtzvG7HVwPIdv6zCCCQBPEnoaujxFMNgfQV/RFwctpc4SewTmmqz+779vRnk0FmLPtNKNPoxH92/MGfSwl0b+lJWDlpW8TNAQ1OjQIQVPq0oBbm3kP+o/t2lie0JkyeY88CFbrZwlNO9SgsRDAvQaeh777rT+gAe2MX+JLdgtqt76454JT4xnlWGCN0REA7UasMwudkJYYwimwzjrrFFd7I8BOoXGDocgrmADoiP4T/jFPiGmD68Go/NYA1r1Jw4wc95huPcPsUueNGCwY999BgzO6bS1LoP5NexThJZwLVltttTLPRFBadK7eCS3w7ng23u/dc845Z2F8NDgDAtf9983OOj6tzjO0OuUirBFsXAfXpQd5xHcDJoQpqT/arfv+6xPyMXrGbGislkfoM/LFPNShfB3qPt7hvjwwr7EGUK1wX93YNzLKPWxQF5///OeLpugbo060HYarf0XfresrQu5huPLwP5hehMnz2xHP6zsxSPUuVg+DHNc9D/U7+h2+gUmWVqn8BnK+3XWDZkBv6kk/DV4Q3xh9G+2oB/Uijf5NO9f33KNhLrrooiVfA2z5oUXPMsmiHWkxd2n0+XiHdvQbXcjbs9LSeqVjtTE/TUM1jcLaw3mL9acTGplV8B6DbX2u36B/awPmdryWIKV8tNZNT+c4MWCbzhqdve997yuNGoQ0qw8aFbNQELKRlVGESmBq6bST0IrNC9G6VKrOGqNIwKD9jvycEYZrOjnzqd+O1vVv4DqtlSBnmvRMpPcdBKD3ydPmwTq+d44FI0vPxt6ETKdGrxtttFER3EbKRqbM4+ZqAvHO+A5MgBaiPIQU4vab5ui6vAk9DACcEay6QrDmbqShxRGKtEX/fUs8A94XbeR3vB98Zzh6Gf0hNGVXzqh38EyUXf6AURg00dLrPMdDCNvWvjQsh0ENRh31ob14ttLyzZXrH+4FM4502t90A4FrAEYIoC9mXW0N8oJoS1oV7LrrrsUCYECiLzD3eybeo87jPf2KoA1rVWmK+qEDHwHfXvfFdqAFqhuMOOgEXRjER34EMJoy1SKt/qs/h0XOs94jr3bvcS2uO6tbz7K8aAcasDrXlqxG2sQ1tFk/2wuog3Z9dKIPgyGWN3RhkGkKo53zVU8FJ+cajYYZwuxqKIzdfISOg3Eyk5grrCOedPNuewwSgEyV5gMcRp81gwnGjfm85umRo7k4c5KYRZ3OAXGOewQCk82xxx47JZ0RqPk/5l3mFoyLAAwibYV6pc0zxZrHxaQsATCvgTlyEjCKYtrkEczsSxAy/5gLueyyy6Z8h9FtCFbmCoMQZqUjjzyylNnBJCxPHr5HH3100fB9g3qSzhIF76Gtet7AhelJmwS8S16tcB3UI7OUdxhchHMTRBpllgcNmvbOScgAgtXB4CzxTB2ZJzMniS7QgvYxkIy5nGgHpm1aCdO7OmadoJ3oTxy5DObM1Ztfi/4iPTNl5MXMr70JXUIWczbnRrsBeWLcnqGh9TN8n+80GFBn+qK5fdMiQQvRF8HvOECd0FTRiD6sztEJPsL8Kj/+DQY2aNO0BT6APglQPAUP8pw8mHOVB1rfWwPvMd3DCx4vIghM/UyaNKnko/0+/OEPl0EyRJ6jjLrtyCq8UX214llPd+ie1JYOYB7PCAhB6WwxOp2V0PgYPoaL+WPURnFB4ICp0sQwdJ13eh3GfdqWESDNj+ZIU8aEjFKMnnRS9/x3Jihcl9YZszIfgUkoh9/S+u1ZxGV0SZDV8w7e7b3K7J3qD8IpQ95RfmcC3TlMaKF1xyjfvQjSLV+/o7wINIiIqcf8JYI210LbVubIJ9Ips7IoB9OSeyA/3+V7fZtnfUN8s3yUSxp5Oft23+i65z2rvN7h+ZgTB+Wpv0N+7hs06Vv+07QxJtp3CIVWeJ4W5lsNMJyHFcxj6ofjGsGp/saiQfUebRnQPsxY2lqdakv1Ki3Uz/gtb33DOw2WWEtqq0s81/qe6YHA4ozjOwyKewXl1dfUAzrUV8PCob+hI/diYKjPqmPX1YV76ksfdvbd6id4gf7uetCKd6jraCc0gQ953n1nz9fviN/uS09h4AsgX4NK87KEvnd4P17j3uyGd6k/A3Tl4KAUfiP9DIMNDooGMRDf0TONU6My1QZD1wFmB3wYouLZagG2ES/MTOeQJ8Gn7IQwggEd3XUViSHo/KCzYxLS6cgIwPvDbBgd3DVHPCed52pI7znvJYCC2QTx1fUorc4YxKBsfpsn9T4H4ege+C2N8srf/YCyEDq8a70DY1A275XOu5RF2ZmwXAfXwX/XQwPxDf571m9l8N74duVQn+pGvupaXg7vVj7fFow36jJ+y8tzUe+01M0226y8M753lKFeOW3x8qYt1n2pHaJua2g7g1HakjaRps6jfkZ7qndtwRKCDl2rIX279/QrfI++5lticKse9GH14FuCLv0PWtM31XdNmwH5sSypJ307ntNv0YO8o57kLY+gFWmDB8lfWUD+8vAsAUlYUiY483E8CnpCK3VZElND/ervMSDy3wE9qzUjM8QbmJ0EozOYQ6iZQ5xnFNF5628A74p7cQS8M/47RydtTRtl8781f6jT1b/l19rxI02kc66fg/p9cS+u1eCkYIlNMDzpQlBH+jqvOh+/a8R15a2fbfdMfY76lSYO5YlnAlFvcd0cOs/BxDNQhwZQMeiLOq0R/zFbjJY205qGg1BrHwAOXEyIka/28NvBszk0nBrmjjD1dmXpRyhj/Q2t5Y6+7Yh+C87xu04fv+OZqLNAPBd9O/J0hjptQD7xHCG7zTbbFAFJUNI8md+hHZ9JTI26flvbpmeCMxqzfvkwY7zvHKQ6GK/NZuV3zOo6GaQ67gU6qQ/mb2tmjbLNa1vTxuoQ5kgmV8sxaKwgT9cMrqz55QREUyJ0CVf3/eaBStuNAQ8PW3P6PDqZxs2H8mLMNuscndSVNNrQ3DSPaZp/CN1EZ1CHcdToeS3GKCuRSPQPMAYe73wDMFh+CJgthy8BJtAtYcjJh/k+wOGP8wkhyHPTyJyWwwMULFtxLebnOBbx6OS0Yg6acwoPbE5D5uUSiUFAzwVnq+TuNeoRF0JOQT7aCJNVnCe6f04U0AGzqfk4ATZEiiIIzWvyxlUvQSthqlVngpm4bu6U5y0HQEudYhkWxFl6Jl3OWDRUTiq8r3lnE56e6RTyjCMxGNBW+sAwtNvIaZwaziQ8AcpkNKqMMvFP8BTVH8LJY1RBqBGc4ZjFtOpsrrNVG1RP7nvG/BmHE9cEqABrddvRFq9UHtvqmmOMPMzFeZYTRifwLsJblKek38GA9tVWLBD4r3YfZIyUxqnxHJyGrO/j5WuOJjGaCGK2bs7ZgnbXRhVRH7VVJq6NVS+hQTi30jbh1nqtNa/W+50A/VqnTHMlhBP9D23OM9VSFF7JvIFnpO37BSOlcWooByI3v2L0G7s4BJQv0iWGD9o3+qA2Nhcn8IO4nRHecFRhwTdHIAvx0QiLjPW1HH5iqQPUdSTMm2dontIK5Qa8dwngVnon9Gi11mKqe8/4LU/v6QTytVWg4BuiaUEI7onkL4mxoW2Y/M1xi75E49Rmg4qR0jhr8DazIFzc1nB+cNTEF9fyGJ4j2lU7c1Dhos+bVOixfumbEwVxnAlBQUPsmsNBiEYnWpW6CU3U8oagE5GtOP7Y6EBkHQvFORfxmgVpag3W3KYQcMLGCUKCBq0vjLjVnUCeokSxGolSZcuseEeUK4/+OLQLASnqGY9t4UVjV6NBpreeRQ6ipvOme8tb3lKcD/oB1pZhmLYK4kHIGzAW1kfDJ4YLQayYtVBaFqR/7nOfK16h7kXbjxp8NwZHWNqIgWZAa7T8RPQU9whRzjwEoxBw6onQ5BBkNx7zoBbzC6W3ySablCAapkOE2hOSL3apwURt8kBLNa9JaNpiy1xntM94CO1STFcDH+tEORixIo1q+/UjCE08VghQlghrq3lpsziAduqkvScSwhKSD8J4CioR6L3gfHqk+NmnGdVEIwhMuUSZsfcds22YD5IAhxfallmShkVj6nS/zlGAPm/ukDAiIAW8np4jB41dDFsmV+EZI1pXoB2DNE3CzOpZu3YQmt1CvvKx5ZYYrOI0e0/ruxITA4LTYR2vYCS2LgzFZFDQN4KTicUIvx+A8DQsJwZn/2Oxd2I4oY159Rn1+g3R9olnoC4c6qUbeKYbphjpu32uRmifymq+1P8Y/CYmFtpE25jXhljGNKNtPRHoH42zT0y1NbE6+59IJAYHaLZ10JO03F+IttBOtTVvUDCW4Oy5c1C/oG68JLREYvDQTkgmLfcXtFG0U/weBoys4EwkEolEYkaQgjORSCQSiS6QgjORSCQSiS6QgjORSCQSiS6QgjORSCQSiS6QgjORSCQSiS6QgjORSCQSiS4wspGDYl1RfRb70t6Dne4LmBhMiGQioHgsaI4+MOqIOlAfsWA9fsf16SFoqYZr8opgBfG7RrtrnUB+UW67uoiNGgvtExMLbWPHG7sOCdsY/SDaaxCQkYNaEI0I999/f3PUUUcVwlNOobsGqXETnQMx20QZMYvDuvvuuxeCmBGmPWzQ5/X97373u4VZ2MlCYHb1Be6dffbZzfzzz1+C4gee5iHlus2rBYV/05veNEWgGYiedtppzVprrVXqG4ReExxe8G/PembBBRcs97qFdrv88svL+9Gv2LcpOPsD+oBNFMQu3nTTTZsVV1yxXBskZKzaFmhABHz88cc3p556atnVAXFjCH4nhhN28LDPpK3k7rnnnuaFL3xh85WvfKXs0DHqsPuJXUswCrRBS1hhhRWKULIfpx1T3vve9zaPPvpo2dkEbA+22WabNT/+8Y+nCMu99tqr7FoiJvA3v/nN5uMf/3j5v/fee5c87ZRhSzEB2j0j8Ld3eFc3IHTt3HLdddeVgZAtypZeeunmJS95yeQUiYnEH//4x+bee+9tzjrrrNJP1l133WbXXXedSgD1O1LjbAMjYaPeHXfcsUTux0QTowFaCUvDiSeeWDQl+7LaJSWY/yjCdmJbb711ET6YHE3OXpcHHHBAs91225UtwuylaANqQktd2VLslFNOKVt6vf71r2+OPvrocp3WSsO88MILi7ZhqzFbStlBxfZSjzzySBGetBHPEHY2pq43zB4L8nfss88+zQ033FDOduCwjVmi/2DqyybWRxxxRLFgfOELXyg0pg37HX0Tq7ZfKuv3v/99c/jhhxdGgUkQmmmuGx1oaxsh77nnnkWI7r///qVvjmofwMhsz4UOaIdbbbVVEZa0wR/84Adt6VZdEVyE3jHHHFP2s6Wx0jQIxnbPPPTQQ0UAL7LIIs3BBx9c6A8zZWY1kOkE3mvrMwyNteid73xnCs0+BsuD7fv0D/uu2rtVfxtkk3rPuUS/jOZPOumksiejEXQQeM6NjBa0+8te9rJm5ZVXLuY+zmGjCnVhftB2azHnGw4dTKrutQPzrWfQjmfMf/r9q1/9qvxvFZ5MwK7J2+HZF7/4xV0zUhvQr7LKKoWGvSfR39Dmq622WvO6172uWDJs39gvsmBGMHIap8Yyl3P77beXRnzlK185+U5iFIHpMk3ql+buBpmYZwWCPtWD39Oj19Y0fns2hGZrffo/1v1OBSAz8c0331wsBp5pfUeiP8FRyEbn4f08yBipoRoCM6p18BDkUJBEN7rQ9jQg82x+M993o/UMG1772tcWXwRCST0wq6ITSwrCszYQQo+zH9PsXXfdVeYvr7322iLM5p133skpp8Ycc8xRzKrqmpPWb3/72+I4AhhrJwitlYmY1jrKbTYo0Ce0Eyc8Z0enA6V+xEgJziB2Z0B0idGFfhDEm8y3Kc46BCVHqfXWW6855JBDionWchF0o64I0Lnmmqv8V2cbbrhhoaMPfvCDZfkKb2UOgOYwIWjN3KlnmHLf+ta3FqG80UYbNR/60Ieam266qXjrduvNHm0n30T/I/pM9Ik4DyJGSnDW0IhxJEYXdfuPel9Yaqmlipex6QvLCDgGffWrX23WXHPNUjcE5rHHHlsEXYCwtMSAFmmJCs/a4447bsoUCIHoGYKVgOU1y6GHbwGTKy11nXXWab785S+X+c5OEAxXmQaZ+Y4qhoHOei44R505JRL9CkKIFsiLlseqM40QzdIUCD5rLWu/AAJzp512Kp6Sl1xySXGyWnTRRSfffeb+xz72sbI0Rf7yIjyt7bvyyiuLo4jlLHPOOedAm+4So4Wh66mI04HQg+BhZgS2Z+uRbZ1XvG9GEc/PSPnGem5Gy9Oa13hlmpHyzi5Mr5zRB0Yd1tNNry7UF01zoYUWKvORUbfO0a9aBRyBan6SGTZMsvVzgXjeNQLV3LK50NA0Z7Tf9jNqPlTXxcyirt/s373H0AlOHemWW25p1l577eaggw4q0WFmFjXBQ03grs3MSNmz8uiWaUgf5akx1vVO0FqG+N96Xf4z+o7ZgfqbW8sK/VTWiYJ62XLLLZvNN998ynKAdnUFlpLQAq2VBOkcNFDXHUy5rqlb5/vuu68577zzpqTHzDkaWRtq6Ze5T6ZZ8Iz3uyfAwjDDoCKEpnrpFu36buTjXuTdLl1i9mEobSPc1HUkpiBRikREmRkEgzj33HObQw89tIQM49lnbkeosZnptHfffXcxW3UL3yZEoKhHNZSlWwKNEWvrc1zGr7rqqqlGtNJY7G5uqp+INcoYZ0ze8hL/0wT4DBZYYIEiDAX+EKM3vFlbIeqPvi1cXvQJUbY23njjEilo5513LkFDbrvttin1feSRRzaf/vSnp1qfZ8H7FltsUd617bbbNu9+97tL1CH3zYcKOiHQAgE7rFB/55xzTuET3cK6YlGRWuG6KEx4kEFJhD9M9A4TxlGCIOOMmGbFAUxMHBoQNaLUuczV/PCHP5zyvk4h/Z133lkYxa233loWzBNaXOmFamsNKh1lgPrb6rPr8VvsVK75dbnqPMbCRRddVDRqB3hGOZWtfl/9LvDbEWX228i/XsPobK0rJql8Rs0Bzz3xxBPlfpS59Tuh/g1jfV9dPufW8oL/Ud7Wd9XptY/QWGCp0WGHHVYW73eKuk6G7QADLcENmGwx8s985jPNySefXAZBoC4daEZdOBt0PPjgg8XBh8etuLMbbLBBecagLfJHB45onxtvvLE5//zzi6cswSkk3gMPPFDywfAdhKzBmXwHEfGt40Hd0LTREbQ+475rca6hftoF5VBfrmsjtOnZQJ1X/I7r7TDW9dkJ5Y5yOffb0UmdPGfyuWeY3Q3lw4GHIGcFHdY7rRf74he/WNadGRl3Cs/SCDEZkUpatRejcvEMCWsjbHM94nNyiJCW+QoTt36JN6FOYwEwRiJN1AdmJtD1fPPNV3YRiAZkaubpiIjMOwlRJjC90b4Yn0aeAjmAEGYY0dVXX13CpmGOtGRzSBgeJoZRYniu8ZgUeUX+ttkSr9eSBPjpT39aBPrqq69eynHCCSeUoBG+E9NTPnXrm1wX/WWPPfYoAwuMQmQXz5v3WmONNco6P2UA8YHVJeGrfgxCvEO800mTJhWGzevywx/+cHmXwYE68/3aDuPwHZiH3Tc4rPDe5M3pGlMjhxUOJ0K/LbbYYlP6xajC92sL7U2AgT7FhGrdprrWJupbWziiD4oOhH7UM20VtBnvWms41XMrOBcJtWZDB4NWofkIU/1ZH413DAqU1eASHfzud79rVl111fJd1q3SojlFqS8DbBYpdWa6yOH6FVdc0Zx++umFJ+ib2kLd0brVxzLLLDOFH6Bv9IKXoAXPewdrl8EJOgDX/cc7mLxNUenv/str2WWXLW2E3lzTHqxxSy65ZCkL+kP3ytBLRL/qVyjf9NAzwRkVpVAYK60Fcd1xxx2FgGc1MAAdg6DSWb2f9nH99dcXxoHBxlqz8eB5zFlnC83LN8SoiSCxGwStDXFwz6/nf4zWfZ9F5BdffHEZcWPkGApmJI2y8kpELNbMgfwRFOEoOL6tmghD7xFD9Cc/+UmJs2rROngfQiasNtlkkyI87BxB6PtuAZZtncYpQzlop4svvnghdG3gGcQc32adnW+WHiO49NJLi7kOQ6CJep+6/O3jjxfTrfIz5cmbmU80Hh6aCBbTJIijnJgnRqFeCV2CG+MxKKAxai+ET+DauQQD8U4ClNVA9BGaNUuC/AlTyx3EPLVdlf/KzbtTW1hX6L3Tg/onyDGjYUN8f8wzBvQ9fdRAR7sTnjX0B3XsiIADoN/LcyxtUdti1JawaM9wGkIL6NLvQYGyOvRNA7SFF164CD+DX1YndKHfoBP1iGZ5HhuoG3gCurEu1hSC/sliZDCu3zJhy8/6VvQrLZrSx80nq3uDQvRI2/eOaE8DaELcwBKNeQf+ZkC0xBJLlGkqu9JIjz7REFO732iUYJ4IEOYGUv3WD3h8U65YLA0qxkLPNU5ESkvC+GmFmJ3CathZWYlGhZdddlkhbAyhnqS39x8G2yloZ9FRwW/MQF7LLbdcYQrmj1pNwfE+cMZ4dH4MhUehsklPsNAMaW+1WdQ38HA0cpQX5w4EZ/sk6WzIXNeZchIYDmZL9aqDAobpIIQJIc8KvKwsviWejXYwGqYl+y8vO1rQJgkxQlwawne1pxkD8584lAQ5LVcbI3z1AtJGOaPe4j3qAxOmCfkd+zL6Pm1EYGMABL/BAE2HwHfo2JiK9yuvZ+TvO4CmL3B43SbjAbPzzfIcRqgHjkGYfbRBtIN2pTn67agR16Ie45l4Hlqfgbiv78Zv/cwB2mpQYIBBMBH8tDu0adDnu5nA1Z3+q88RrNEvfTtYq+o/IYf/oR19E23hhUzfBtIGkHiKtAbY8jPwdd+gGr0KOmGwCepQvSqHAaWBCt4SgxN0rpzyEbwCbQhuwUrmvWEF6jUoLcrZD1B/6lGbObTDbrvtVniSdnW/FT0VnDoR5wTbN5kwJ0iCeNoVbmbAqYWQCcgfI6cdYro0rOkhmEHMKdAagxDck2eEIov/4OxwTYfncu+/Toy5x70AUyuGTWtDdIg0CCIa1Nl1qJ8dC9LTuMwv+a3ciI65ibZvZIu4QvjGu5xBOTEJ9xBbvDPK7uyQb9zzu84P4re843et9WCi8XwMoCCEINiWymjcPWmVXZkiT6jfE+m6EYCeIYhpFMMKgw4DEdBW6tiZWRyjaG078NvAhikeA8bE0ZF+5HkMOeq9BhqnuXN+M6gidPRfjAjN1O3U74i60j9oi/gA6IMsOuoHfIvv0qd9a12XNZ24pq6lpWmqT9fkF8Eloj6jbqMM/ke7OSDyVa+RHryDkGShsoOMqRlpCHptMmnSpGJhoPnhDeD5XoC2S8j3A3yzOow28p/1i0ObwY2+34qpe/tshgZVCJ6uMbpVyOgEs/IwcgsYvRnxmZ9gXukUyqZDMYEydyASwtjcKQai/HEEdFZzf+Y+baFjZFnfr38HzGsybzIVmm9ST95NA1J2WqP8mHl1+HZ5AAJGBExGhCavSSYbe+HRho2SOcz4FsQkWou68o00EXMk8vZuo0FMz+/ll1++fLNvZ5Iy+HGdtUDeUTbEaQ5FemYq6TFq5mTlko65CwMHecT74pvqb/PbNlXmY7xfXuFBGHVUA0NjCqMREJrme1gCukFrPxqWQ10xvzMDgrp9+9vfXgaS5qYxVNekDUHA2gH6J+1HfZp/ZxVgAidEor2kwfgDzPRG7EyDzPKmJgxAWS6kI1y8x2ApNNB+hW9Uf77RgB+tmGaKudpIE+e6X8Z1FiXTLCwxNEN0gpZNn8iPWdaA0DVezWjFO1hdCFYDanXpGnqAdjTQWg4WIPOs2sB+p97BB8I7tTkrkgG0tK15zU7E+1r76UQc4FzXHTm17777lsFSDERqPPvpDr3v5N+zFRiZzqAgBJFRUw2FndkjPpDAICS9k1kRc9B5aLjgOgceo+XWOZ12oDEylyJ8cwKcbFzDlGmKOjYBh7AIO0ILgzeiYg5VBoIIsWAmyimdUTkTmbzk6TmdOGJ2YijMPzQ/h9Ej8zYIbeY5gjogT8xIGc3rmV/xmyCXHqGI4IJwMUKdQx1wNmDqJHiUU11KK2apAYfvpKUjOtqxfH2H8isDDVYeNENlVlfKQePwXt/P3Ood4Sykrnx7nNWhulQewCi8l6bpXd6h/bzfWT+SVl1K5z0O19WVazEnNd7I1rcql7kgTMt31H1qWA5MyuDGoEWfMaK2plM914xBWvXIUcx2a9pFXzBIYj0xKNGnLDOxVIIQ9Iy+TSiGo5qBMWZtIEjIonfOb9reb0KZSTI2s+4G+lWE7UMzvYK5L4JeX1Rm9YRm9GnfawBqUKEPogO0oY9Kqy7Qob5s/l69ohN934BWPmhBv0VXzIUGNgajnkEH2sG3m39D3/I1KFUOzzijae0rH+UhaPE4PIVFi+YvX85G0pr+6YXmp4+AOVn8WV9Rl9E/J/KAONfQR1lZtDfflXpg+KynnnqqJ8MMxMZrUseyo/zshMZBWDoIk2yMaGNUoQMjWHZ2ZelkpCUNBhNp47cjGiDMM4H6Xvyv4XqkqfOKc53GUb8//rsfo6ZAnUfcq/ODyDP+Q+QJnmPaQVTmVOs8IX7HM/E/6jjQek1a/+vnMdIwT0Pcq387Bzwf5qp4NzjHf6NrI2sexGGGagd506CZr3iMOg8jfCetT/3Q4kPA1fUacE36ug0CBhkYM6YHdds4R1vG8wapTPOYkHaI9onn2r1jeiDAefjSCDjX9BJRzrrc7b4h+mcrpIk6cFZXEHm0IuoJ4lynjfuRJ8SZTwCNlsnRoJ/Gq1z+e66my9mNKCdveNo1a1e/mGrHQzg+nnHGGUU5Ckyrg85GaFwjrdkN2o2lGUZ2iFWDOWamk0TDB4L5g3O7Thj/x3p//TzE/Tpd/Wykg/g/FnHGWbr6Wef4Xb8HIl08RyPh8Reo08fveAbiuRqt16K89fNRd/FuaP1dI9LGOVD/N0CzPGg8oTlKUC8sL7REWkprndZAp4E6nd8xRxmo73uOoNQOAYyaVmXwWrePc/yv8+h3KHP9fa2/42hHl+BefG/0e8dYqOumXdo6r7ounWmx6JenO2FlsBS+He5P792JZ6a/anoI9FRw9go6w1gfPJGITt0tZkXnnpE8CB2jwn4jrk7Kg8GHVpR4BgattbmpXX9kGTIvb4mFs//qW1oHUy0zH7iOYdMA+RSYTzePGsJTeqZF3u20H//jujxoQEbyzMeRf2LWQD1ra2Zdc9EiNJnqMYipkXU+PsaSIT2XLBo0kUj0F9CluTZmXHObTNzmNS1fMscD7rtuSQUQmgSl+R9zyZ7lfGcu1XQIcNbiKGT5QwhHGpB30H4isAhHuuQNsx4pGGcPei44J7Ihg3Bj1JtIhElt1Jk2euBQRwvkPEaDFByD17T5KPWjrghE2mPUl2f4FHD4o3HKR9xaC/KB93k8BzxzrfcVIEGgAFFrONLRiFzrBEG/ScOdY6Lrqm6vOA8yzY2Uxund9fuZkZL4RhtMMbxwQ4COMgSuYM61VIm3Ko0wPAs5l9RQX+pOyDkmcVomxyrRqjgD2S2lHWithCgvXAv6CUye2/InVDsFOm4tU6L/gefCIAtNGCmNEzQYr0DOCjFXkxhdEAAW8xMC3S6LGDZYM4guwnuQYw96MbAwb1nDdbTsGekJT/8te3A279mOORJ2DvPnsZSKcPZMeJhOD/wXtJt3OA86Ex4FaCOHQZj2jrYfVPRccE40gtCsAWMiYlIKwksCHA3UgzfMGjFjxta4jjIIM/WBRtRRnNFFOEm0OkuE17K0QKMIOopnA37HNWfvkp/fDoK6E0hnHaCAIYR6or+hbfUP/FaYPx7vBluuDypGTnAGITMT+W3+BmoCTww36rYmNDmr8DzkiTvIxDyzsGCf4MPcQOQogskC//DGVT8h+Ag9i+6ZZtUjE6woV+5b+lDXc/wWvMJyFvOkwpnJX1By90Wx6RTbb799ed66wFFus0GBQRIPavPY1oVHPxpUjJzgDCBgOwkIPSVe5OOPPz6NOSoxnECwTIyi2vAEFZVF1KMQBqMKc5qEGocdEYXMVxKY1kOrM3XDxEZj8F99CWoC1gu6LvCEaFeCi9AyPM/8G4JXvuKUWoIiOhEtn9DlqRsRszoBIW+HD0E6zK+aOw2tN9Ef0Ee0iYhjdjkSslQozug/g9xePY0cxLVdqCixavsBBKXoMrwAlY8rvXWLzE9JhMMJBGuOzRpFcTxFnhHoASNONCUesPCDBKABBeHEeYeQpDVYx2ktIM9bQDc0CQHDMUgC1N6ewsnF/XPOOaeEjgtTOKFJU7S+k5bK7IonMJd3A7FiWQu8W9nQLxOgNk5MPPQZGqY41SBiEQeyQRqcWkYlbKHwnXXkoJ4LTvEehf7qF2hch70lmW2NfuvrieEComVtsDBcfxRXFKNNZvtM3RBA+r3fMXgMRqeO2tFE0Eo8E+nBM/KMOo56rgemno351bjfKaS35EVYNEtjeAa3K2NiYiD+NLO6uMScgrpt34lG3wjOftI4EZiGDKKvCS7uJYYP0eaJqTEz9RL00npuzdP/WrjO6PsC8Z5E/yHatm6f1v7Q7xhLcPZUZ1Zp/dTJoyztGrOfypmYtRgkwu0lZqZealqqz615+h/0NivaIem0f6FtWttnVrR5rxFlrr+lZ4LTKJMpZhAi4icSiUQiYekT2cViWgv92So4vSiktO2IOOPYAy6RSCQSiX6HPY5DcPZM44x5Q4e1WibxbRScSCQSiUS/g7yi8NkAvHZom+0ap+PJJ58sux/YWJqLeyKRSCQS/Q4BPiyxuuiii8pa/8Bs9aoVHYQ30g9/+MMSPPqII45o5plnnsl3E4lEIpHoT9TTjFtvvXVZp2w7POuOn7XkkkvONsFJ22Sudey9995lf79WL6tEIpFIJPoR5jbtKWu7PSEogQx71p133jnbBKeoEXYgOfHEE0sory996UvNK17xisl3E4lEIpHoT4jbLFSgPWkjMIgt9wR16EkABGG1dtlll/JbdB4F6BcoSzst2LV+Kmdi1iEsITHZn1aQZxD10lo/rRiLNqIe63vt0tbX4rez90Ue00O7fBP9gWjPQcctt9xSYusy0RKWphpjVUjPIgeZ51SIQw89tGxi2y8I4qMd33rrrWXHBTEwh6HhE9NCe88999zNEkssUQKOJ/6J6PPjCTL3QrgGIn38hjqNe3X61rTgXZ7pBPGcWMPMaLk5Q//AJgALLLBAs+KKK07Zo7W1vwwKdt555zK/KbbyNttsMyVmM/RMcP72t78tWzcJAL3BBhtMvjpxCGImJAWptsuC/0zKzo5OCTkxWMBo//73v5dRpB1yeM51uhfksMPo+uyzz27OO++85kMf+lDz/ve/f8oG37YAO+qoo8qWYegYCLyf/exnJWi7s91Sll9++SnB1u3BeNBBBzUf/ehHi1e9a+re8jTWJ4zJMxgteguhOhaYzCwNwNR466PXQWXMwwo8VezhXXfdtXnve987ZaPyQcP666/fvPa1r20efvjh5phjjikDAvAtPROcT7+nbOEk2C87cT8AkxBwnpZpf05LZVRUYniBMZs6sOekLeWYY8ROJiBGHX/4wx8Ks7jjjjuKQDSYoJUTpOiCoLL9F7+FJ554ojzDksTj8NFHHy3/1S9aYlnCML/5zW+Wbcl23HHHsk2Z+3YjOuyww0o7eA8hu88++5R8pgf7fRK4dlvRZnZcoeUk+gMGNgZFN910U3Puuec2Sy21VLPnnnsW3xZt7+h3Iap8hD8Fj3X0kUceaU477bQS9S7K3jPBqSCCvC+++OLN7rvvPvnqxAHB0oAJzfPPP7/smIFRDOLIKNE5gnAdiPykk04qB+Fgn8BRBs2QQGOSOvDAA5vDDz+8CCp067flZQTnz3/+8zK1gYYISVuRGZEbFK+77rpFy7zuuuuaN73pTVMEpx0y9ttvv2L2IvDsn2nOSJ3b2NggFoMaL7LYVVddVQSwgc5GG21UNM0Q8Em3/QXtYnBq2z7WAUrTIEA/wiP0z49//OOlf9I4Tz/99LKkMvpaz2yRCgP90sFvuOGGom0YBdtfMIlvtKA/2mDZfpP2ltxjjz2mCas1arBHqXkpZljrra1XwyweeuihsodpCCoIBnPvvfcW+rEROCaz5ZZbFlM4rSPS1fj1r39dNhGXdr311msWXXTRInANYgjOsUA7PeWUU4q5l+CNaZQ00/YntIstJA8++OCimBgYaad+b6voV4Ho51D3tZ5O4ilAv1ScdTl2nKcBQ783aGLWoLWdbZ5sb07zZqwPowzC0QCS6ROtmqdyJrTca4V7wmhKp14daMrZ3KX7rYh0mFDkTzi7RniOBaZgQpc2XG/vlOhfaNull166/P7e9743jVDqR+iH9TnQ2pf7/0tmMVQIJwejaE4hc8455+Q7iVED7QkxcxLSL2hCoVGNIghN3x9eqgSZelFH7ZietIQeoRqMxdo3vwnFdnDPIV/PO7xH/t4/Fsy/8pOgnSYGA9qYNcJm8Tyg/W8VQIOKnglOlTaRiAZzRqzKk0JztBEM3Py286gvQxLQmrmaaQ2uvfbaom3OP//8Uxxw1E9dR4ssskgZcPBMZ2oVYvN5z3veVJs51OnRHE9Y2iMnpAcffLC58cYbS/2PFxzFYLed1pvoXwR9GRRxLBsm9ExwRiXGKLYmptkB7+Ck8N3vfrcwg7hWo90oOjFa0A9nd18cFHDg4An7jW98owwmjj766GIW3Xzzzct9AtHSFMIS0I85TQ491rmZ9rj55pubVVZZZYqjFYErz5e//OUlPS/Y1VdfvdCmuJ/veMc7ym/OQ8y8ieFCK30NC631XOM09xEa3+yEBrryyitL0AXriXj3MSMlEon2sOTE+s2tttqqzPs60z45TwFhesIJJzSXXHJJ+Y+Grdm0PMQ6TfOPlprxwA1rznve857isRzrPpljOYx84QtfKB65PGp58KLRHMgmBgU97amEmfVfjhh5IL7ZdQgqT8Pl+CFOLg/aEJ7u1+eZwazIY0YxUSO4YRk5jgq0lwFr/B4LyyyzTBFskyZNKstT/A+nHYKNCTaEonx4JlvkTju11m3//fdv5p133kITcd+aSxsCx3uZagnl448/vsSx3mKLLYqT1kTS0axC6zfMyDcNQz0MKqLf1mjXHj0VnApgDRhNsC6MgrYWdmYhPyNoLvXehWn86Ec/Kq7stE9zN663q5ReYmbK4BsnqvzBhBODAf2EGdUSrOn1Of2KiZWglC7Orajz4QwUDkGttBx9pe4z0tA+CdbW9IOMWmtWN51+m3SO8Z6Juo778T8x66Bu9VPRrbRlHK3oucYp+gJzkIXMIreIQhJwf1YdoGNZK+adAQ4GFrxzBFFBkXZm0K5iO0VrmTtF/Y29Rry72zInJha0QkEIRHIRiGAssNAIZCD6Sw1h9URTEYrP4Lfug1dccUWzww47TNFO3bOInJVnrbXWKlGBzGUGBFAQtYuZd5igLnx7HJ3Sp3Q1P4p82iEGIGPdT8w8KHgsI+b427VhTwUnCK7NkYBEZw4SvccO2xwFZvUhygkzEK+/+HjncH+3JEUFTQ+E7V133VUYD0bAJIXwLfqmxdYVGwTTDnUZArfddtuUOLkQz9Z5+N36rEgWGNgBBxxQ/rvO85DLfvxvV454voZnPNuK++67r6x3DUL1rN+YbyxorqFOW6+1liPu19fqgcdY6VtR10mAGR6zBh6h119//TT5jYex3jUM8G0rrbRSWXcp+Ie5SI5zfA5aIYyedXfq0HNoVZuLAKNOv//975fIPQbA6taBlk899dSylMUzHPI23HDDQjP33HNPCb8meIGNFKTnZWmulA+CMvUbxusLrffa9UWWrgjoEPfG64dRj/iMeMCeqQWpEIaiMaHJY489dsp15/rdrbTUeq7T9hoT/f5OoYz6uOmDsSJZ9UxwRkMzzxBo4lUKsM1JAFESSLPy2HfffUv8S4JTRUQHi87ot/VF5l7Gg7QYDAIXt9BInAk4AoXLLzpDnKH+LY/4/nh3wO9YN1ffGy8v/+0K4TtFvIn8RX5xvf7GeNb/QFyL8wUXXFDCqQWkxcxoJiLIBDFGHlHeGu7VhB7vbidMW9Fanhrx7rhX5+9eXf8EwoUXXlh+8/w0uAhBOj3Io7Xsw3T4Nt6uvFv9JzCF10MjBpCugXQh/GKAacnIOeecUyw3ovfYoxBT8Ww7yINGalC52mqrFS9dGqfpkRCu8g7tNM79BN8QdeIcv8G91vvgWpyDN8R/qPNofSb+e6ZeFxv92zW/8SsDoEjv7KjziXtBezUNxrlXqMsTiGv9ckSZ1KHDlAZessIKKzQve9nLyv1WtF+l3AOYQ+FE4JidMOLV4YIBe69oFoga8cf6tLGAAIyMCalYmxYMWyUz+xJe8uJMwV3/uOOOK+nB+wkfAeT33nvvEtIMo+IwQTAFaEtid4rvWe8eQxAS2kbwwpMZaHDe0LAYmnd5BpSDCdroXjrMy7o6gxWmcQv9DSjEFQXejAQMT0kaA69I5jbfRgjzorTEQB3Im7agI8V6O5q8QY/rRmZGxfIT23GnnXYqWqmy8ZykxUirzjDcTTbZpHwTBxFmQ4xh2223bb72ta8VbcSSBaY8zJZVwujd9yuztMpjUbxdd3huiqeqrh9//PEyj6cu9S1lISymB22KodfWiWGDdrPkQ/1qh7CkqDtWH5agdmubCVnHGmusURyB1M+ZZ55ZYseq/3aDz8suu6wsX5G3JSf6PVqxgwoLx3jBDvoF6sig2QCDcLeLC+9gg36aHzpGU77vrLPOKmkoA/gLCw4alMaAm9OUgQc6s+ZVf3NNQAcm8b322qu8E5/QTuqYLwb6EGRCeh7M+rNBDFowGLHGNnxGvE9+6NA0GDpWJjzC/4svvri0yW677VYGNL2AOnQAetfn+hHql9OqOlJXguMIx6mft+MHEyY4Zzd8LAIleAJvectbStBhZ0QAGrVdxdSQpl6crUPGmdehjqnzMm3JvzZ7xsJtTJlZWNDs+eabrwhW2pB3E0yEGQZvTha8U0MiMh7BBDLBYPSOQAgIgji2ugGMjzDR4AIsIzxLAQhlRErgEo5Mw+axrMFD9I899lhZToAJgHcr65JLLlk6lB3QaaDyI1gE6VdujNNgwoDB+2j30hgQ8Jrk1ezbCHlliHpWJwhavXAowQgMZDAdGgmmqh6sKyRszZFFubUnxqQ8BL569R3WAbIGKJ964HSCYYmlGmG/xoO2FN3EQCM8r4cJwbwMRCDaIs5XX311oQv1XMN9z0afB/8jXN5YcE/fcdTv0u7Oca2fYVBgAGZu18AQvRE46NKZOVafFapRvzetETuCgP4oHaEqEL7Bsv7IwmMgyPSNnr3D4NggE42rO/2a9USf9+5ddtmlXFd/0T+1pYEsZk/4okdtaNDrHYJMMKcvtthixbzLWsDKhjZ6Dd9j0Gug1o9QPnzHgAQfM5BUT/qpPtyKngvOXhGMj9WJaT1AmzFiNvKllXWCYAwqtGYcAe+gYZlEJtgEtm5lJr43rtFKLQD338heY4FyukaAxLs8RzhYPO4Z/3kE08gwLelaPRJdd83ZiBhBEzrKKfQVQkPstE8Cz+hUPpFXMEPv924bPgMhu+yyyxYNVHmYqqULzZnWTsgaqNx9993F4Ys53nuNlmvU7S8P5TABjwFgHLRE7zcyNo8sqox5NcyFoCWQPUfIG8FjJNIazXqfb/Ed3oPhKEvdBuMB0dCE6zIOC3yTujF/hrEGor1ZFvQHddiK1jYLWui0nuQZadHKRDDuGQEhZwDJYuKb9WW8Q38V4AEvMaDWF90ziDU3Bvqk/ux7nWkxtmhzjjT6LJ6hv/L90D4ErfscqTyLHuRFs2xX3/Yx9W7voB0rk8Eq3wn0j2blz1Jgtw8CwZrZ6VnaZjW0uff2o8apT6tjh7py1H22HaalktmMThjYrICP1hl1GGvFCB0dsVNiB2lVIAZsNBcMI+C+Sob6u3QO96QXnNpv90PQRdo4EzJMWpyOCNNIIz3iMsL0nzAkAKHdd0gjvTOCxgwRIU3YaJggZFZFXM4IK8oZQjzKqq5i0EETJoDi+8OciShjTS7zn/vM0vKnxbruGoYQTksEXe1JrX6lA3Upffz3nPyM6jlG0ErVk/tR7xBllpfvD2ByyuL69OB534xBYYDDdhh8qXtaSA1Mn6MQq4F2lqaGejFAcU8b8J7FoGkOBn+xyXUr0B7LgkEhMz3tCV1oz2Da0c79CGVj1qahMTsbwOEBNvGu+5O+165/qUfWH/eZudUVPmIgayDoYOHQLugbTUE4K0qvvgx2nQ1kobXO8IjWMhjMonn0LuqT+yw4tF75GqBPBPAuZv1+O/BK9WIAQnh2gp4LTo3YK9CCQruqO5zfnRIt5s2MydHEXJt5N0cdxKHOy2gU8zeP4DCnA9G5pY06iHJoOHMnGH14KgLCNefBFGkPQk4ZRr/1++rfGBziYNo1IvY+ozyet64pC/f/z3zmM8V0ywSFaGnCNDrvBnkiOoTt99prr10I0XebV8EQfKPRscgy5izNaSpnzA2od/OQTK3q34S7eRx16J11HYSwjGvO8V2eUWbfwAQsvmncC/hOzzCBm482L4RpG82rh8h3lKEObr/99ikxQ/3Xlsz35tSDYahb2r+zfimdwQRHCX0eI7a/Jmcyc33RdsyTGE/UNY9v20oRnPoDszph4rp36XOEsT5rwNKPMKjw3cyk+p/vDQFXo7U/AmFnwM6ngPmfl7/+SRCiFfRnykNde4fpBf3b1AoQstK7xkSs7UD9qvPgJYH47b62Mcg2xYJvAf5hOsiAR733GtEv2tVVP0D54lDGKO9Y6NlG1jQB2gIbvEacSOi8hCEzK4KYXiW5T6iZmDcvadSMqAgiwg0TMCJkWvSfdmXOz3XMh3aEqXCCCSFO69KBYzTpOQKJRsDsEh0MkTCVytN1jMY1cyTMOLXZC2Pi+i+tQYP3KgdiN7L1n9BiagV5+K1tCCTaA0Hj3bRNZssQwv7L2ztpccrh3eZaXSdofRt4nuMSRov41Zd0BJn/NA7aqnpVZ0Z9yiV9lM03q2Npma389wxzF8YrP9pAvIvANshhXlOf5jcNGjAd7x8LnteONAGh4pyHEb7TwEZdqRu/CTZt4HA/oB+xlNTaofYxcDOXp54N9CzHiv6HPvQR/SMGMvKgyWLiTPzqV/t5l0N7E5ruTQ/mYGnGfAn0l9kN5fMNLDEsM/ogzV3/RKP6PzrQD50JOnXgm/RFz7iGNnxzTEEwo+qjaBJdoXuQTh1rG/f0bXwK/WoDvEI9qXuDH5ovfoTu3NdmymKASsM3KMJbzJ1ybsJbWIG0qffWFpvZCbSo3ZRR/4l6HRSYGvvWt75VBj+UokAKzg4EJ0SDO/yeHmZHB5FnjPDHQqflGwv18xxxmJmYu9tpy35P733j3a/zC7S71orx0sQ9pjXOHeZ0lX0sSD8KghPC05LTVs0EarRrr7jmjI4NXOoBG0QaR91H/fYMAYnpRz4hXDtFrwXnoIIXKGc8mr3BOQsMzTe0+minXsFgQrvpM8MkOHtuqh1URGN32ulmR+fopNPPLFHUz2OwvCwxPKi/qdP6GO9+uzrqpN46ScNb2Ly2sneSfhRgiY/g7eMJzThoRq3QljSHMOsG4hkaDkFZg4DEtGk40RecpaMlhQf69PpRYvpQhywB5jMtyfLf0pR6kJP1PGuQgjMxJoIJYoqDgihrMPNa+0mMD0KO9m3eM+bBa09xmiOvXEuqAoQfy4T5b0uCzAMyvweYOJnMORbV7WCJhrlD64ZpSYRuYuagv6tj86nagtZJOx/P4pKYMYxcjdaMVSeL/4lpMQz1UzPrVsS9QRwgzA6Yk2SWp6XwvOQwJrgET091RSDy/CbsQH3xzqblcP6x5tjUh/W35rbct77Q+kHeuFHP1iFbHmbNrmf8Nhc6vbZyJL1OH3Vdxe+JRpRlWNBTwanyJrrjR+PVHSsxmoj+2NonRhUEHAcTcWgt/eHpSVhalB9QP7Fkym8C0zwWYUg48hu45ppryhpfaepBiYNzEm2TN6kz7ZXjCyc07x4Pnk96HRzU9BRTJvF/0NFTwaki+6HjR4MaFQdhJ0YT+gHhEP1ylM1avD3Nf66//vrFC9v6Yh6jvGJ5fNZQb+rKQnvezpYZiaIl6gqTrrza0TrPW855vFMtZ6LhWnfI5Nu6xrSGedXWudVEfwNvdZjHNlAaJvScS/TDiIODgwWv3LPNrQzLKCjRPTD32MUCMx/lvhDzjARUOIQBodZugKnuCME6PUEL4fTTimCmhG4siXBul38NSzvkzTScGAxoY8pJLL2BdoOpQUTPBWc/VJwy8LgkOK1fTME5mtAPMHjr3qybo2WNMggmAoxHLZpw9p9ga7fuTxrP1PRTa+/t4B6GytwbnruuEbzjaZTWLVoDLLYrYZ3of+gXBjqWtOG3/td9ZZAxkhoniIZjMbD5G8xTucYj+MTwgSYlfJy1gaINsUSMch+wcJ+ZVZQoQTSshWWiFb2qXtJQm7Mt7rfoX0hH6wYttnffeu12WqSAIBbyc0Sy3tC8pvlUGG99pmeYg5mGY2uyRP8CP2Wu5yxGaDLnDxNtjaTGCcrBIYF5itu2cHPmWFJ4Dj8IA8ya1yinFgu0I6LNsIyIZwS8YUWnEuJQnGMh2oTbi52EaIS0PnOToK44EIk4JQyfjaoJUUEkRH1SnwanzKw0egKV5miDa9FvPvKRj5RnmMqFZ5zePJjQdCLiWIxOQNtsW5CLxMQj6Ea7GhDZQk5b8coWXH7Y6KrnkYOE+bLma6KBqGkcQlGJtSoYurB4Md+CyEeZiQ4ztCszIUZtKYToQu1MkaMIISVtZSUGMccd6zlDE0QX6JhZlYk2aMhuK0K7EYCcg8RT5kOgnt0nTIWoI3g9w8Jj4GIJCtOu9ZyErXzdHw80TYv7xULmzds6H5uYGES7UUS0EeuNbdMEYxjPBN/vyJB7LUDU0diI28JvC7kFSGaTTwwnmBwJTFuIiS7EhJR4BjVNtMP07kOkcfg9PdR5dvN+wlfgc9vYcT7p5F2J2Qttw6TOAmHT7YkIJj+r0TeCs180zkQikUgkxkPfxKodb0SZSCQSiUS/Y2S9ahOJRCKRmBGkxplIJBKJRBfoueBMJBKJRGKQkYIzkUgkEokukIIzkUgkEokukIIzkUgkEokukILzadQOS7x+0/N3NJCOatNien2/XZ15xvV41u/4PyP5JYYHw9q+KTifRk3cSciJUUb0/7HoYCxB6Ho8EwLT/zjGwlj5dYrW58d7V6L3iH4ws+3cbxjZkHs1xC29//77m5NPPrnEro1tlZIIhw/adI455mhWXnnlEh9VNJCMdfpPiEcrCH7Ea46YtPU99SUWaUB80tiCzDNiPkesZ9fElJVPHYtWes+5L5ZpnV+3EH7vpptuas4444zyLiE0E/0Be9wK5m/zgIhVPEjIWLVtIBjx9ddfXyL5C1CtbGItatxhGyEl/gmM9YEHHmh+85vflF097I4zDHE1ZwXsGIMe7BSE6W2yySbN9ttv3zz/+c8vg8r111+/0I24zmjk97//fbP33nsX5kKovvrVr24+//nPl+DeAudfffXVzcYbb1zCbAoYj7ZsV3b44YeXfVC1xdJLL90ceuihzSKLLDK5FNOHd3vf5ZdfXpibcthppd7+LDGx0NZPy5fmrrvuKrvj2C1lpZVWmnx3MKwDKThboNFssrrVVls1c889d3PCCSc0L33pS8tIOTHcwHRthozp7rfffmWbLFtoYeKDQMyzCxdddFHZQoyQXHfddUv92C0FbWy00UZlCy+Mz0YIhKi6IiSPPfbYQkMEn2f8vvTSS8v+nvLcdNNNyy409ma0G4rdaH784x83SyyxRNmf84orrijbjRGotNVOoK3OOuussr0Yy4EdVlgSRrn9+hFozaYZBkq2gTvttNOaxRZbbGB2n+qbWLX9UlkI30h5mWWWac4555wyUmYuit3u8xjeg8nIrij2hbT3pG2qLrvsspFnurbWo7EdddRRpV4OPPDA8v+SSy4pJtWgXecYYNoIXJ3efPPNhY5sK0aw0ujVp7SO+G0XIpr+m9/85ubcc88tDGnVVVctG1u73iloxKZWPvzhD5c9Ve14o12Vt7W985i4Q5vYlk5fWmeddZrNNtusWAcGHT0XnP3AnJThO9/5ThkJbb755qVxA+7lMdxHACN/5zvfWfad3H///cv2VPX9UcNjjz1WBA8tEGwPZTBpP03ziBCCkCAFTNAgxBwmLLnkkqUOH3/88fK/FTR9c5s2t/Ye857M5PJk1usE0k6aNKk8z2LUOkddt3UeE3sE9CuDKgMubRf9aFAxUhqnd2tMRM88xKRkm7PEaEJfwHTf9ra3lUEUB7FRRmiRwfDqc/wOxDUmU0c8GwzREcJ1PARNtuY/HjzzjW98o+ynanolMRjAb81Dm/Nksh9kjJTGGe82euZ9N998800zWk2MFjBhc3GY/JNPPln+jyo4xqGNX/ziF+U/bZL365xzzlk0z9a68X/eeecttBQaprlL4AzSjtbNE7Hw8Hmg4RO6v/zlL8u90FqnB0yX1krjHOX2GiToC9rKPLi252A2kbJgZjFSGid4f5QhPGgTowvtH6b6UWfCH/zgB4tA2n333YsnrLP/73nPe6bQiYGmuavAmmuuWYTtiiuu2Ky++urNV7/61eIvsMACC5RnHLRRh/olaM1H3nvvvcXzdu211y4euhjqG97whsm5jg+DHPlxYkoMFqLNBp3WRkrjbEU/lSWRmGgQfDvvvHPxTuUDgLlZisIBB5hFLSn50pe+VP4Dj1lLVmin1lISfl/84heLFu95pjl+BIQvYSeP4447rlluueWan/zkJ81tt91W5pmPP/74tP4kBgY9E5y9GGHU7/CbYBzvvb0oUyLRD6hpYax+T/PeY489ytrmG264oQjCvfbaa4qW4D5nnI9+9KPlP3AgsvbzzjvvLJ61vGwtZSEEvcd0iCUjyy+//OQnmjKnbCkJoekwX+laDmQT/YiaXqKP9kxw9mI0GQ4KYO6ESSeJMZH4J/E7j0UT7qFTXq4LL7xwManWZlkIGos8PEOgWnIQz7gX74k8/a7fa65znnnmKZppvT4uMfzQJwYF5Ejdb6PsPROcnAsQXS+8qR5++OFmt912a84///xxG6mukERi2EEztBCdE9R4QDPWtVo6UoOjkAAH5iQ5eEAIRFF8eEu2wrvOPvvs5qGHHprGy5YjkSUog8RIE6MFjm/6N6tLLS96Jji91Ij0z3/+cyGyuhCzCkGACB5RmkvZZ599CtG6F+/0O47x0FpGRI4RBNP4+c9/Xn5Huul9k/ut71QXorME2pWpXb4GIA8++GApA8Rzrd/VLj/X6jzjmda0/muv+p7nRJAxEov/4H58X5zjOtTv8zuOVsQ1z0VeYyHyhvgdzFmH59gS+SSa4i0rmIEoPkLhxdpMdVzXkcAE5jWttwN1ygxr6RYHIpF6rH01QA1wJBLIQL0HvvKVr5RIYSKGCTTCzBuCUpCET3/608273vWuaQTqIKCuL7/rftra3wRbCZ4B7fp06zOg/4bHcQ3X1R/gHTxUO0G8o7XsvcZ4ND3RUB9BD/olXsehjdWk7qc9FZwcAhCvhdazs8GEdOKl553iYYqTKcoI9/dAJ40XZSQ8RFKRj5iawoz5Dv85OESF1t/U7vviWrzb/7vvvrswqvHQLi/eixdccMGUUb48ERFBWn9bbb4OxP04aw8MTdr6Xd/+9rebiy++ePK/Z+BbMUTMAOr0fsszzo54f2u6+hyIZwOt/6F+ttVs6Pu1h3vCKQr6rbxxf9SxyiqrlDoTdUckl4MPPrhETWo1R4VGGgM6TFpIO/TD29YcprlJg9J4zjrYehAZ9wU68OxSSy1VIgsZzGoTA0ZCVj9CX4ME/ct3Rl9UpzVThbgHF154YZkD9kxdz/XvQDznrJ1ERWpFtJ92E+6QcI286nNdBqjvtabvJVrL1U+o60W9inRlkBjXAj0TnCrLiNRaLfEKjXZDa5lV8GHe4/z+97+/zM/4L/IJBwSRK2KdGdQVMR6Ymn70ox8Vb0GCU8xN69QQi9Gfb8EI/Pc+10D+fvtO96Rj7qq1IYh6iLQ14jlMKfKRB4GLga2xxholnbwwK2Y09/13eC7qOsob96RzENyYo3RRJ7wkmfUsM3DNqNY3SiMP1+Tht3fIJ8oeedP8490xKnbPb2Vx3fPSyNt/57ouvSfyco73ysN7IxINCBl31VVXlf8rrLBCiX3qu+KbRh2i+phXBPV37bXXFucfg8KoQyAI1Fkc1mgakHHw4f1KE6VJiuFJYLaDQZ32kj8BKryluVD0p321oWOQoLzRp9WfunFWd77Vd8X/oFfQl133rCO+2zn6u7T+02zkFTThuUjvWdfclycYvNOIgpbiHZ4LgR7X4llpg3a8p9foZ3pUtqhLyonfvM1bMfXM/2yGDrDvvvsWd3a7UjD9cF9nP3ZvVlWovIxkCemYU9WBqN0CzNtSKkyQ04MKvOOOO4qWad0n1GuRCNXrrruuMOgPfOADRdM1ChQ83H2/dWyMxsib1q1TK9eee+455buV7eijj2422GCDwuBAutNPP7255557SlgzO7jIg9AU25NGZccB6+bAEgKaIwIxSpKfuWXEMf/8808JLbfjjjsWhscDkhai/LQJywJ0EnXlm5XDAAHj5G1ptwxlNQpTbmWgQcw111xlcEKrsIUQcyBtFZPmNGJNH4Hu3YhZXVrCYAAhLqp+QIO30N5gR9uoH+WnQYpnarG7WKY77LBDaQfmRuULTUe/8o6YU7PjiXiozPQ8OzuB/JVbvQ8btJt2JbyCzrShvsEXwLpKptRFF120XHfUaTBZ7eNZ1/Q5v/U1fbMV2kXf43ULgrdL77pnIN4xKNCveRsLH6c+DAjQnAEb2kAPnKPwHd9oWY/lPb4THfNW1s8XX3zxEkxfAHwmc32bdo834TeHHHJIqTe0jI+pN++hueKXaC3aQf6WDBk0X3nllVPu28bLMqBTTz21aKgEgEEl2vdfWVkDtOk222wz+Qt7Bxp4WK36Cfo6Xk5R0s74LbpR3zV6KjhBwzIRaWiaDlPR7HAYGosoMVmCottAw4RDOxDCtFtE4ZsITqO6AEJwqHwCAXPSYQ866KDCRDQIItT5rYnjlh9AAOaWaH6YEIFgJI/AMPjNNttsitD0ve9+97tLnoQSYibwbBFFEGy33XZFQzXfdOSRRzY//elPi+bAq5FQN5DRNlFvzBQIHBAt4UN70LEIL+X2DhopgUzoWAwfWgmhJz/fjaARLshfHq47MJyddtqpmFaVy24EhCuBTgiqJ2WnQUZ/MS+mPRC8b1N25xCkvh/e+MY3lnng0JrHg/uYifrVHsMG36fu1Xkr3DM4c0QIylb6ifpzXftMD/G857zTM/W1QYPy4xsGqgaE0WfRtoHcrrvuWgYfBsOEFc0Rn4tBGLowb4zvCHauf6Nry3KEoiMsDYhjwGrJD+2cQxeeRWgbeBKoHLfQv3oMWlIOg2OC1MDWgJ3wNvD0Hn1a+dECOkbzBOtEtIV+cM011xSLR79AmdQFD2/1iBdTcsYKktNzwRmFo904QKMGY51ZyF8lYALmB2qhTFPkoKRTmiPopNMgGAftiMCr4fkYectbBw7mENCh4z3ShAA2mgHpbbcjTZjR/JaXjq+ujGBdI5Rvv/32KWnikIcy1tcIXQREyAHNUZoFF1yw1DcBbSsn1yCei9+Ef5RVXtJiBsriuncSbLQ6ecjfNQJX/gSy9DRI+akH8LsWokbbnlc3GEho8+oHU2AiND9tfkx6gxR5eI72JH9H5A/xHfJSh/F/PMjbYn3e2H4PG9SBdkET9XQFaCuDHgy93bdrC4eBRcxHamf1P1asWHShTe67774yoONIpE/rO9HGnbRLv0CfNQgzTaP8viWA0errmKx7NE3f7pp0vjMcTPRb19Sfvmlg6Dp4nraDztEETV4dy8v70QcYkMqzbiv/CVXpIzyisrD2EOY0UBYh7UVTNrg1WBe5Sdv3si28ywCeNtdPtKYd8LdO0LM5zvGgsDrNrDgIGudWTVaHMRojMIPZd9Jo0mEsRpFGj56pO5n78d89lY8gEIf0RqHxDAYf6eIZZ6NAplACAoHEfd9ihGrECUZohGv9bA3507g8T0NkHjPqtdck86j1eZx9CE1mEqM+ab0zvg2c1SEiBgRr5Aq+i6lHGsxAYHS/MUZ1QTB7L1NMANNlilZe38J8GnDNc8Fg6m9yXVth6L6BiV8EGu9rTeua9KHF++835lOnGw/aLvrPsB2+C7PG/KM+nFkhCFPTDBhuXK+h/2PABC6tyTP6tWcwaiAs1L96B9636Jq24zdTOgFgsKx/6KvxbL9DfTjQFM2SNUVfjIF/0HVA2qiH+E2b9Bud6GesIeqByVbflidNUz1z1gP912AnBi62agN51ZC/vKP+/Qbv8Q5CU0B8mqY0Brm0VxYbQjX4S6+gjPpGv9Fap0IT+kJwzmrQVMIb1KjLvB2HJM5JOpLO0w14EmL2TKNGabQ42pbRM+LXUZ1ppDoDAcW8aETlXRoFcbkOcU3HRhDmAbnr0+rOPPPMkgZcp2EZnRH6BJ0NhcG7PV+DUGUyZt5BmDYKVlZCmSmIkGM29T0Ymh1iCHkjZv9pdaB8yhIel2KKxvzilltuWb5TGkKMKdlSBIzRoMSI2ndzpDKfwnmBWYjWyryFWAli9YFRqwdCU/2ZbwmGIx9pELi5HZqgOlAm15UhmIS6cM1InUOQ76cxYzCYRuIZMK3TGLUdBq2N9GcDoBqWmxCQtBHQFjQtgoPwNNfOjKVtAmjDNEQIQ/Wu36E3bcJiY/9TJjDwTqZCznbt5kj7CfonqA8DUN+FDvAA34fmAT3qi4H4Ln3V3KgpFk5S6IJ2aFCLLtGIe7RzPgJoGE1xTpG3w7sJbXTAN4EioO876/uRDk0oB1oyGJYGXWtr4RKZl73XN9A6TbNE+XuFEOyDjGc99dRT01e7BgzmGnUwpgnaChMcARUwimOuxWgxhGDW4wEjJjyMzhAEoYZw/CacCSCHDit/TgChSevIhIT0YW6h8UVH95x8wj2/ZmSIluYnjWcRKtDgQmAE6rRhhlUO/zE/5fAdfnuvPAhzmgCTKAIPZw5l4YVsrZ35RQzX9yunuqRhyI8DAw3Udc8GUcjbPWV0cD5yLQjddyiDulJnBjvewbkCaEfy8y51Yr5WPasD3yU/eYFyaY/4XgwDA8fYMYmambVCeZm0CQuDB+dhBaGl/9IUV1tttSn1Nxa0T83ktANLgrZnLtTm7kc6Z4jf+qN+RcvS5zgeRX51+m6hHPqkwRpttldQXgPAoF0DVX3WdbSj36Fx/dY16fQ9tKRv6sP6c201kh+rkvyYt9EUTTNoUx0GvQb/8Tzact3z6AddS6tN/JaH8nDeQ8PogRc0bdYAFs3iSXhNzRtnF6K9WdUM3nlyj0eX/Y6hEpzROM7mY4yQ/ddpa8yI4BxFIFTeZUalrXXY7zBvTJhi1hCMqhWuj4Lg9J2YMQYdg6/xEHSEGWPmQUcsEM41zcRv16VvvV/DdfnJB7wj3jPeczUmSnAOEtQjIU67pTwQ3hyRaLYck3oNbaxMwyI4h8pUWxNdLJ1AjIkZgxHw+973vlKPgwYOKTxEgzGPOtAGDWZ6ZjnWB2ZFS1SYdmkvQVd+MyMyz9fAlHl9nnfeecUUSAgGPMMDlAUBtIX7mDpvbV7M7rle029i5qA+aaRMtCwLLFD8NCZCaA4jhlKqBOEmIc4c1B8CHMTBh7JH+48lOOP6qPST6Qkn9zmQ0OKY9yzrobFEPTH/mWdmwo98mGLNmXNy8cz6668/lZObJRDm6K05jmfsuoKBm+M0LyqIhwhYo9IOvUC0NVMsXwT1HVNAE1HPw9a2Qyk4g9DjnJgxRP0Neqcfq/yuDxtBzww4pp144onFxM0hjNWGee+EE04ofYEwNLdszjL6BscTi/iZxDFoENSCQJVGelMjPNzVNXMx/wMaJ29yTnGumToxJ5eYNVDXY/G/sa7PTkzEO2cn0o6ZGHkMG1HPKESW4SjCK5oApX1ycIswhq1Qb8yt5kwF5xC84lOf+lRxULOOul29Mss6LFs65ZRTirC2rMM8c71MKTFcGLZB6kgKTh5mDt5s9XxMYrQQjJ1nIkxv/m/YgR54WkYcZgKRIw9t0VxlKzBCXszqzfwpb2nLoFwfi7Z4T9NcI1CAcyzT4v3dCXiqA8/SxGAArTlYIkz9tBtUDRJGUnBiBka8FhQzEyVGE2HO4tDibG3jqCMYXM3c4lorXAstIn7HfDih2e6ZSF8/1y1oxXZAotUSxIn+h/ZmteClbzmN5TuDjJE11QozxWSkIROjC8G1LShfaaWVyvKlGWHkwwJzmzRL6w1jPhOz413dGlVFPUkjhCWNNLR2Sw3cizWeraDREnw8cdV9rH2E6a0rrSFQgCVHyhhCONG/MKASwIUZ3/I2yssgY2QF57LLLlsWggudZVd7BJwEOPzQxsHQzasddthhxXlF6LFRhyhV6kfgCJGvRJdhPrUOEDA/plUCVjr/ReUiQK1/tSONQPyCIwg6Ig0zrvomeJ3dE0ZRlByeuCIUYajosQ78MR7ki/kKIycPFgPX4kj0B7R30Jo2FpeXA5k1uIOOoYwc1Ak0qDkSjXnppZcWQscghKlLDDdYGoTus60ToWnwFIx+lMG8ysmH1yst0hykyEuWm6AX2ieN0sJ13rDqSzph+6zHBFFshIrDIAlWNMYJiKCjnXrGgIXjkbCY8hXhy7ZbNNtO2sAzhDXNWAhH7cnBiPA2x5roD7Aq8MBGZ6K5vfWtby1xeWOOepAxsoIzgHEiYIu0zXcKoZUYflgcbp6bF2g4tGD0Y83NjQp8OxOqyFs0QI47Y9WH61FfPGIJ0YUWWmiqyETq1X1HCEVnFh7PEMbagUbaidAMRH5MywQzjYbJt1MHo0RvwGHMgEiIRwMwpvphwMgLTkCERkfmaQjSxPAimDOBQHMa9LmWxDNtSrMl8DkLoefExEO7mM82SDXnPUxIwfk0YvRaj4oTw4ts5+FEtmuiVxhZ56AaQWxJdKOBbOfhRLZroldIwZlIJBKJRBdIwZlIJBKJRBdIwZlIJBKJRBdIwZlIJBKJRBdIwZlIJBKJRBdIwZlIJBKJRBdIwZlIJBKJRBdIwZlIJBKJRBdIwZlIJBKJRBdIwZlIJBKJRBdIwZlIJBKJRBdIwZlIJBKJRBdIwZlIJBKJRBdIwZlIJBKJRBdIwZlIJBKJRBdIwZlIJBKJRBdIwZlIJBKJRBdIwZlIJBKJRBdIwZlIJBKJRBdIwZlIJBKJRBdIwZlIJBKJRBdIwZlIJBKJRMdomv8P5wQBfg8cE0AAAAAASUVORK5CYII=;" vertex="1" parent="1">
          <mxGeometry x="460" y="-410" width="488.2" height="290.6" as="geometry" />
        </mxCell>
        <mxCell id="91VObT-NkFJwBAb2Qbbx-40" style="edgeStyle=orthogonalEdgeStyle;rounded=0;orthogonalLoop=1;jettySize=auto;html=1;exitX=1;exitY=0.5;exitDx=0;exitDy=0;entryX=0;entryY=0.5;entryDx=0;entryDy=0;" edge="1" parent="1" source="91VObT-NkFJwBAb2Qbbx-2" target="91VObT-NkFJwBAb2Qbbx-31">
          <mxGeometry relative="1" as="geometry" />
        </mxCell>
        <mxCell id="91VObT-NkFJwBAb2Qbbx-2" value="Sentence 1" style="rounded=1;whiteSpace=wrap;html=1;" vertex="1" parent="1">
          <mxGeometry x="200" y="320" width="160" height="30" as="geometry" />
        </mxCell>
        <mxCell id="91VObT-NkFJwBAb2Qbbx-5" style="edgeStyle=orthogonalEdgeStyle;rounded=0;orthogonalLoop=1;jettySize=auto;html=1;exitX=0.5;exitY=1;exitDx=0;exitDy=0;" edge="1" parent="1" source="91VObT-NkFJwBAb2Qbbx-2" target="91VObT-NkFJwBAb2Qbbx-2">
          <mxGeometry relative="1" as="geometry" />
        </mxCell>
        <mxCell id="91VObT-NkFJwBAb2Qbbx-41" style="edgeStyle=orthogonalEdgeStyle;rounded=0;orthogonalLoop=1;jettySize=auto;html=1;exitX=1;exitY=0.5;exitDx=0;exitDy=0;entryX=0;entryY=0.5;entryDx=0;entryDy=0;" edge="1" parent="1" source="91VObT-NkFJwBAb2Qbbx-8" target="91VObT-NkFJwBAb2Qbbx-32">
          <mxGeometry relative="1" as="geometry" />
        </mxCell>
        <mxCell id="91VObT-NkFJwBAb2Qbbx-8" value="Sentence 2" style="rounded=1;whiteSpace=wrap;html=1;" vertex="1" parent="1">
          <mxGeometry x="200" y="360" width="160" height="30" as="geometry" />
        </mxCell>
        <mxCell id="91VObT-NkFJwBAb2Qbbx-42" style="edgeStyle=orthogonalEdgeStyle;rounded=0;orthogonalLoop=1;jettySize=auto;html=1;exitX=1;exitY=0.5;exitDx=0;exitDy=0;entryX=0;entryY=0.5;entryDx=0;entryDy=0;" edge="1" parent="1" source="91VObT-NkFJwBAb2Qbbx-9" target="91VObT-NkFJwBAb2Qbbx-33">
          <mxGeometry relative="1" as="geometry" />
        </mxCell>
        <mxCell id="91VObT-NkFJwBAb2Qbbx-9" value="Sentence 3" style="rounded=1;whiteSpace=wrap;html=1;" vertex="1" parent="1">
          <mxGeometry x="200" y="400" width="160" height="30" as="geometry" />
        </mxCell>
        <mxCell id="91VObT-NkFJwBAb2Qbbx-46" style="edgeStyle=orthogonalEdgeStyle;rounded=0;orthogonalLoop=1;jettySize=auto;html=1;exitX=1;exitY=0.5;exitDx=0;exitDy=0;entryX=0;entryY=0.5;entryDx=0;entryDy=0;" edge="1" parent="1" source="91VObT-NkFJwBAb2Qbbx-10" target="91VObT-NkFJwBAb2Qbbx-36">
          <mxGeometry relative="1" as="geometry" />
        </mxCell>
        <mxCell id="91VObT-NkFJwBAb2Qbbx-10" value="Sentence 3" style="rounded=1;whiteSpace=wrap;html=1;" vertex="1" parent="1">
          <mxGeometry x="200" y="570" width="160" height="30" as="geometry" />
        </mxCell>
        <mxCell id="91VObT-NkFJwBAb2Qbbx-44" style="edgeStyle=orthogonalEdgeStyle;rounded=0;orthogonalLoop=1;jettySize=auto;html=1;exitX=1;exitY=0.5;exitDx=0;exitDy=0;entryX=0;entryY=0.5;entryDx=0;entryDy=0;" edge="1" parent="1" source="91VObT-NkFJwBAb2Qbbx-11" target="91VObT-NkFJwBAb2Qbbx-35">
          <mxGeometry relative="1" as="geometry" />
        </mxCell>
        <mxCell id="91VObT-NkFJwBAb2Qbbx-11" value="Sentence 2" style="rounded=1;whiteSpace=wrap;html=1;" vertex="1" parent="1">
          <mxGeometry x="200" y="530" width="160" height="30" as="geometry" />
        </mxCell>
        <mxCell id="91VObT-NkFJwBAb2Qbbx-43" style="edgeStyle=orthogonalEdgeStyle;rounded=0;orthogonalLoop=1;jettySize=auto;html=1;exitX=1;exitY=0.5;exitDx=0;exitDy=0;entryX=0;entryY=0.5;entryDx=0;entryDy=0;" edge="1" parent="1" source="91VObT-NkFJwBAb2Qbbx-12" target="91VObT-NkFJwBAb2Qbbx-34">
          <mxGeometry relative="1" as="geometry" />
        </mxCell>
        <mxCell id="91VObT-NkFJwBAb2Qbbx-12" value="Sentence 1" style="rounded=1;whiteSpace=wrap;html=1;" vertex="1" parent="1">
          <mxGeometry x="200" y="490" width="160" height="30" as="geometry" />
        </mxCell>
        <mxCell id="91VObT-NkFJwBAb2Qbbx-52" style="edgeStyle=orthogonalEdgeStyle;rounded=0;orthogonalLoop=1;jettySize=auto;html=1;exitX=1;exitY=0.5;exitDx=0;exitDy=0;entryX=0;entryY=0.5;entryDx=0;entryDy=0;" edge="1" parent="1" source="91VObT-NkFJwBAb2Qbbx-13" target="91VObT-NkFJwBAb2Qbbx-39">
          <mxGeometry relative="1" as="geometry" />
        </mxCell>
        <mxCell id="91VObT-NkFJwBAb2Qbbx-13" value="Sentence 3" style="rounded=1;whiteSpace=wrap;html=1;" vertex="1" parent="1">
          <mxGeometry x="200" y="720" width="160" height="30" as="geometry" />
        </mxCell>
        <mxCell id="91VObT-NkFJwBAb2Qbbx-50" style="edgeStyle=orthogonalEdgeStyle;rounded=0;orthogonalLoop=1;jettySize=auto;html=1;exitX=1;exitY=0.5;exitDx=0;exitDy=0;entryX=0;entryY=0.5;entryDx=0;entryDy=0;" edge="1" parent="1" source="91VObT-NkFJwBAb2Qbbx-14" target="91VObT-NkFJwBAb2Qbbx-38">
          <mxGeometry relative="1" as="geometry" />
        </mxCell>
        <mxCell id="91VObT-NkFJwBAb2Qbbx-14" value="Sentence 2" style="rounded=1;whiteSpace=wrap;html=1;" vertex="1" parent="1">
          <mxGeometry x="200" y="680" width="160" height="30" as="geometry" />
        </mxCell>
        <mxCell id="91VObT-NkFJwBAb2Qbbx-48" style="edgeStyle=orthogonalEdgeStyle;rounded=0;orthogonalLoop=1;jettySize=auto;html=1;exitX=1;exitY=0.5;exitDx=0;exitDy=0;entryX=0;entryY=0.5;entryDx=0;entryDy=0;" edge="1" parent="1" source="91VObT-NkFJwBAb2Qbbx-15" target="91VObT-NkFJwBAb2Qbbx-37">
          <mxGeometry relative="1" as="geometry" />
        </mxCell>
        <mxCell id="91VObT-NkFJwBAb2Qbbx-15" value="Sentence 1" style="rounded=1;whiteSpace=wrap;html=1;" vertex="1" parent="1">
          <mxGeometry x="200" y="640" width="160" height="30" as="geometry" />
        </mxCell>
        <mxCell id="91VObT-NkFJwBAb2Qbbx-21" style="edgeStyle=orthogonalEdgeStyle;rounded=0;orthogonalLoop=1;jettySize=auto;html=1;entryX=0;entryY=0.5;entryDx=0;entryDy=0;" edge="1" parent="1" target="91VObT-NkFJwBAb2Qbbx-2">
          <mxGeometry relative="1" as="geometry">
            <mxPoint x="115" y="375" as="sourcePoint" />
          </mxGeometry>
        </mxCell>
        <mxCell id="91VObT-NkFJwBAb2Qbbx-22" style="edgeStyle=orthogonalEdgeStyle;rounded=0;orthogonalLoop=1;jettySize=auto;html=1;exitX=1;exitY=0.5;exitDx=0;exitDy=0;entryX=0;entryY=0.5;entryDx=0;entryDy=0;" edge="1" parent="1" target="91VObT-NkFJwBAb2Qbbx-8">
          <mxGeometry relative="1" as="geometry">
            <mxPoint x="115" y="375" as="sourcePoint" />
          </mxGeometry>
        </mxCell>
        <mxCell id="91VObT-NkFJwBAb2Qbbx-23" style="edgeStyle=orthogonalEdgeStyle;rounded=0;orthogonalLoop=1;jettySize=auto;html=1;exitX=1;exitY=0.5;exitDx=0;exitDy=0;entryX=0;entryY=0.75;entryDx=0;entryDy=0;" edge="1" parent="1" target="91VObT-NkFJwBAb2Qbbx-9">
          <mxGeometry relative="1" as="geometry">
            <mxPoint x="115" y="375" as="sourcePoint" />
          </mxGeometry>
        </mxCell>
        <mxCell id="91VObT-NkFJwBAb2Qbbx-28" style="edgeStyle=orthogonalEdgeStyle;rounded=0;orthogonalLoop=1;jettySize=auto;html=1;exitX=1;exitY=0.5;exitDx=0;exitDy=0;entryX=0;entryY=0.5;entryDx=0;entryDy=0;" edge="1" parent="1" target="91VObT-NkFJwBAb2Qbbx-15">
          <mxGeometry relative="1" as="geometry">
            <mxPoint x="120.00000000000205" y="695" as="sourcePoint" />
          </mxGeometry>
        </mxCell>
        <mxCell id="91VObT-NkFJwBAb2Qbbx-29" style="edgeStyle=orthogonalEdgeStyle;rounded=0;orthogonalLoop=1;jettySize=auto;html=1;exitX=1;exitY=0.5;exitDx=0;exitDy=0;entryX=0;entryY=0.5;entryDx=0;entryDy=0;" edge="1" parent="1" target="91VObT-NkFJwBAb2Qbbx-14">
          <mxGeometry relative="1" as="geometry">
            <mxPoint x="120.00000000000205" y="695" as="sourcePoint" />
          </mxGeometry>
        </mxCell>
        <mxCell id="91VObT-NkFJwBAb2Qbbx-56" style="edgeStyle=orthogonalEdgeStyle;rounded=0;orthogonalLoop=1;jettySize=auto;html=1;exitX=1;exitY=0.5;exitDx=0;exitDy=0;" edge="1" parent="1" source="91VObT-NkFJwBAb2Qbbx-31">
          <mxGeometry relative="1" as="geometry">
            <mxPoint x="660" y="335" as="targetPoint" />
          </mxGeometry>
        </mxCell>
        <mxCell id="91VObT-NkFJwBAb2Qbbx-31" value="Embeddings&amp;nbsp; &amp;nbsp;(01010110)" style="rounded=1;whiteSpace=wrap;html=1;" vertex="1" parent="1">
          <mxGeometry x="440" y="320" width="160" height="30" as="geometry" />
        </mxCell>
        <mxCell id="91VObT-NkFJwBAb2Qbbx-57" style="edgeStyle=orthogonalEdgeStyle;rounded=0;orthogonalLoop=1;jettySize=auto;html=1;exitX=1;exitY=0.5;exitDx=0;exitDy=0;" edge="1" parent="1" source="91VObT-NkFJwBAb2Qbbx-32">
          <mxGeometry relative="1" as="geometry">
            <mxPoint x="660" y="375" as="targetPoint" />
          </mxGeometry>
        </mxCell>
        <mxCell id="91VObT-NkFJwBAb2Qbbx-32" value="Embeddings&amp;nbsp; (0110101)" style="rounded=1;whiteSpace=wrap;html=1;" vertex="1" parent="1">
          <mxGeometry x="440" y="360" width="160" height="30" as="geometry" />
        </mxCell>
        <mxCell id="91VObT-NkFJwBAb2Qbbx-58" style="edgeStyle=orthogonalEdgeStyle;rounded=0;orthogonalLoop=1;jettySize=auto;html=1;exitX=1;exitY=0.5;exitDx=0;exitDy=0;" edge="1" parent="1" source="91VObT-NkFJwBAb2Qbbx-33">
          <mxGeometry relative="1" as="geometry">
            <mxPoint x="660" y="415" as="targetPoint" />
          </mxGeometry>
        </mxCell>
        <mxCell id="91VObT-NkFJwBAb2Qbbx-33" value="Embeddings&amp;nbsp; (0101011)" style="rounded=1;whiteSpace=wrap;html=1;" vertex="1" parent="1">
          <mxGeometry x="440" y="400" width="160" height="30" as="geometry" />
        </mxCell>
        <mxCell id="91VObT-NkFJwBAb2Qbbx-59" style="edgeStyle=orthogonalEdgeStyle;rounded=0;orthogonalLoop=1;jettySize=auto;html=1;exitX=1;exitY=0.5;exitDx=0;exitDy=0;" edge="1" parent="1" source="91VObT-NkFJwBAb2Qbbx-34">
          <mxGeometry relative="1" as="geometry">
            <mxPoint x="660" y="505" as="targetPoint" />
          </mxGeometry>
        </mxCell>
        <mxCell id="91VObT-NkFJwBAb2Qbbx-34" value="Embeddings&amp;nbsp; (0101011)" style="rounded=1;whiteSpace=wrap;html=1;" vertex="1" parent="1">
          <mxGeometry x="440" y="490" width="160" height="30" as="geometry" />
        </mxCell>
        <mxCell id="91VObT-NkFJwBAb2Qbbx-60" style="edgeStyle=orthogonalEdgeStyle;rounded=0;orthogonalLoop=1;jettySize=auto;html=1;exitX=1;exitY=0.5;exitDx=0;exitDy=0;" edge="1" parent="1" source="91VObT-NkFJwBAb2Qbbx-35">
          <mxGeometry relative="1" as="geometry">
            <mxPoint x="660" y="545" as="targetPoint" />
          </mxGeometry>
        </mxCell>
        <mxCell id="91VObT-NkFJwBAb2Qbbx-35" value="Embeddings&amp;nbsp; (0101011)" style="rounded=1;whiteSpace=wrap;html=1;" vertex="1" parent="1">
          <mxGeometry x="440" y="530" width="160" height="30" as="geometry" />
        </mxCell>
        <mxCell id="91VObT-NkFJwBAb2Qbbx-61" style="edgeStyle=orthogonalEdgeStyle;rounded=0;orthogonalLoop=1;jettySize=auto;html=1;exitX=1;exitY=0.5;exitDx=0;exitDy=0;" edge="1" parent="1" source="91VObT-NkFJwBAb2Qbbx-36">
          <mxGeometry relative="1" as="geometry">
            <mxPoint x="660" y="585" as="targetPoint" />
          </mxGeometry>
        </mxCell>
        <mxCell id="91VObT-NkFJwBAb2Qbbx-36" value="Embeddings&amp;nbsp; (0101011)" style="rounded=1;whiteSpace=wrap;html=1;" vertex="1" parent="1">
          <mxGeometry x="440" y="570" width="160" height="30" as="geometry" />
        </mxCell>
        <mxCell id="91VObT-NkFJwBAb2Qbbx-62" style="edgeStyle=orthogonalEdgeStyle;rounded=0;orthogonalLoop=1;jettySize=auto;html=1;exitX=1;exitY=0.5;exitDx=0;exitDy=0;" edge="1" parent="1" source="91VObT-NkFJwBAb2Qbbx-37">
          <mxGeometry relative="1" as="geometry">
            <mxPoint x="660" y="655" as="targetPoint" />
          </mxGeometry>
        </mxCell>
        <mxCell id="91VObT-NkFJwBAb2Qbbx-37" value="Embeddings&amp;nbsp; (0101011)" style="rounded=1;whiteSpace=wrap;html=1;" vertex="1" parent="1">
          <mxGeometry x="440" y="640" width="160" height="30" as="geometry" />
        </mxCell>
        <mxCell id="91VObT-NkFJwBAb2Qbbx-63" style="edgeStyle=orthogonalEdgeStyle;rounded=0;orthogonalLoop=1;jettySize=auto;html=1;exitX=1;exitY=0.5;exitDx=0;exitDy=0;" edge="1" parent="1" source="91VObT-NkFJwBAb2Qbbx-38">
          <mxGeometry relative="1" as="geometry">
            <mxPoint x="660" y="695" as="targetPoint" />
          </mxGeometry>
        </mxCell>
        <mxCell id="91VObT-NkFJwBAb2Qbbx-38" value="Embeddings&amp;nbsp; (0101011)" style="rounded=1;whiteSpace=wrap;html=1;" vertex="1" parent="1">
          <mxGeometry x="440" y="680" width="160" height="30" as="geometry" />
        </mxCell>
        <mxCell id="91VObT-NkFJwBAb2Qbbx-64" style="edgeStyle=orthogonalEdgeStyle;rounded=0;orthogonalLoop=1;jettySize=auto;html=1;exitX=1;exitY=0.5;exitDx=0;exitDy=0;" edge="1" parent="1" source="91VObT-NkFJwBAb2Qbbx-39">
          <mxGeometry relative="1" as="geometry">
            <mxPoint x="660" y="735" as="targetPoint" />
          </mxGeometry>
        </mxCell>
        <mxCell id="91VObT-NkFJwBAb2Qbbx-39" value="Embeddings&amp;nbsp; (0101011)" style="rounded=1;whiteSpace=wrap;html=1;" vertex="1" parent="1">
          <mxGeometry x="440" y="720" width="160" height="30" as="geometry" />
        </mxCell>
        <mxCell id="91VObT-NkFJwBAb2Qbbx-84" style="edgeStyle=orthogonalEdgeStyle;rounded=0;orthogonalLoop=1;jettySize=auto;html=1;exitX=1;exitY=0.5;exitDx=0;exitDy=0;" edge="1" parent="1" source="91VObT-NkFJwBAb2Qbbx-53">
          <mxGeometry relative="1" as="geometry">
            <mxPoint x="1170" y="490" as="targetPoint" />
          </mxGeometry>
        </mxCell>
        <mxCell id="91VObT-NkFJwBAb2Qbbx-53" value="&lt;font size=&quot;1&quot; style=&quot;&quot;&gt;&lt;b style=&quot;font-size: 14px;&quot;&gt;Semantic Analysis&lt;/b&gt;&lt;/font&gt;" style="rounded=1;whiteSpace=wrap;html=1;" vertex="1" parent="1">
          <mxGeometry x="850" y="460" width="180" height="60" as="geometry" />
        </mxCell>
        <mxCell id="91VObT-NkFJwBAb2Qbbx-65" value="" style="shape=curlyBracket;whiteSpace=wrap;html=1;rounded=1;flipH=1;labelPosition=right;verticalLabelPosition=middle;align=left;verticalAlign=middle;size=0.5;" vertex="1" parent="1">
          <mxGeometry x="669.2" y="480" width="20" height="120" as="geometry" />
        </mxCell>
        <mxCell id="91VObT-NkFJwBAb2Qbbx-66" value="" style="shape=curlyBracket;whiteSpace=wrap;html=1;rounded=1;flipH=1;labelPosition=right;verticalLabelPosition=middle;align=left;verticalAlign=middle;size=0.5;" vertex="1" parent="1">
          <mxGeometry x="669.2" y="315" width="20" height="120" as="geometry" />
        </mxCell>
        <mxCell id="91VObT-NkFJwBAb2Qbbx-67" value="" style="shape=curlyBracket;whiteSpace=wrap;html=1;rounded=1;flipH=1;labelPosition=right;verticalLabelPosition=middle;align=left;verticalAlign=middle;size=0.5;" vertex="1" parent="1">
          <mxGeometry x="669.2" y="630" width="20" height="120" as="geometry" />
        </mxCell>
        <mxCell id="91VObT-NkFJwBAb2Qbbx-69" value="" style="edgeStyle=none;orthogonalLoop=1;jettySize=auto;html=1;rounded=0;entryX=-0.011;entryY=0.634;entryDx=0;entryDy=0;entryPerimeter=0;" edge="1" parent="1" target="91VObT-NkFJwBAb2Qbbx-53">
          <mxGeometry width="100" relative="1" as="geometry">
            <mxPoint x="680" y="374.5" as="sourcePoint" />
            <mxPoint x="780" y="374.5" as="targetPoint" />
            <Array as="points" />
          </mxGeometry>
        </mxCell>
        <mxCell id="91VObT-NkFJwBAb2Qbbx-70" value="" style="edgeStyle=none;orthogonalLoop=1;jettySize=auto;html=1;rounded=0;exitX=0.1;exitY=0.5;exitDx=0;exitDy=0;exitPerimeter=0;entryX=0;entryY=0.5;entryDx=0;entryDy=0;" edge="1" parent="1" source="91VObT-NkFJwBAb2Qbbx-67" target="91VObT-NkFJwBAb2Qbbx-53">
          <mxGeometry width="100" relative="1" as="geometry">
            <mxPoint x="689.2" y="770" as="sourcePoint" />
            <mxPoint x="850" y="480" as="targetPoint" />
            <Array as="points" />
          </mxGeometry>
        </mxCell>
        <mxCell id="91VObT-NkFJwBAb2Qbbx-85" style="edgeStyle=orthogonalEdgeStyle;rounded=0;orthogonalLoop=1;jettySize=auto;html=1;exitX=1;exitY=0.5;exitDx=0;exitDy=0;" edge="1" parent="1" source="91VObT-NkFJwBAb2Qbbx-71">
          <mxGeometry relative="1" as="geometry">
            <mxPoint x="1170" y="627" as="targetPoint" />
          </mxGeometry>
        </mxCell>
        <mxCell id="91VObT-NkFJwBAb2Qbbx-71" value="&lt;font style=&quot;font-size: 14px;&quot;&gt;&lt;b&gt;Sematic Analysis&lt;/b&gt;&lt;/font&gt;" style="rounded=1;whiteSpace=wrap;html=1;" vertex="1" parent="1">
          <mxGeometry x="850" y="597.5" width="180" height="60" as="geometry" />
        </mxCell>
        <mxCell id="91VObT-NkFJwBAb2Qbbx-72" value="" style="edgeStyle=none;orthogonalLoop=1;jettySize=auto;html=1;rounded=0;entryX=0;entryY=0.5;entryDx=0;entryDy=0;exitX=0.1;exitY=0.5;exitDx=0;exitDy=0;exitPerimeter=0;" edge="1" parent="1" source="91VObT-NkFJwBAb2Qbbx-65" target="91VObT-NkFJwBAb2Qbbx-71">
          <mxGeometry width="100" relative="1" as="geometry">
            <mxPoint x="690" y="384.5" as="sourcePoint" />
            <mxPoint x="861" y="492" as="targetPoint" />
            <Array as="points" />
          </mxGeometry>
        </mxCell>
        <mxCell id="91VObT-NkFJwBAb2Qbbx-73" value="" style="edgeStyle=none;orthogonalLoop=1;jettySize=auto;html=1;rounded=0;entryX=0;entryY=0.5;entryDx=0;entryDy=0;" edge="1" parent="1" target="91VObT-NkFJwBAb2Qbbx-71">
          <mxGeometry width="100" relative="1" as="geometry">
            <mxPoint x="690" y="690" as="sourcePoint" />
            <mxPoint x="840" y="630" as="targetPoint" />
            <Array as="points" />
          </mxGeometry>
        </mxCell>
        <mxCell id="91VObT-NkFJwBAb2Qbbx-74" value="" style="endArrow=none;dashed=1;html=1;dashPattern=1 3;strokeWidth=2;rounded=0;" edge="1" parent="1">
          <mxGeometry width="50" height="50" relative="1" as="geometry">
            <mxPoint x="820" y="720" as="sourcePoint" />
            <mxPoint x="820" y="410" as="targetPoint" />
          </mxGeometry>
        </mxCell>
        <mxCell id="91VObT-NkFJwBAb2Qbbx-75" value="" style="endArrow=none;dashed=1;html=1;dashPattern=1 3;strokeWidth=2;rounded=0;" edge="1" parent="1">
          <mxGeometry width="50" height="50" relative="1" as="geometry">
            <mxPoint x="820" y="410" as="sourcePoint" />
            <mxPoint x="1070" y="410" as="targetPoint" />
          </mxGeometry>
        </mxCell>
        <mxCell id="91VObT-NkFJwBAb2Qbbx-76" value="" style="endArrow=none;dashed=1;html=1;dashPattern=1 3;strokeWidth=2;rounded=0;" edge="1" parent="1">
          <mxGeometry width="50" height="50" relative="1" as="geometry">
            <mxPoint x="1070" y="720" as="sourcePoint" />
            <mxPoint x="1070" y="410" as="targetPoint" />
          </mxGeometry>
        </mxCell>
        <mxCell id="91VObT-NkFJwBAb2Qbbx-77" value="" style="endArrow=none;dashed=1;html=1;dashPattern=1 3;strokeWidth=2;rounded=0;" edge="1" parent="1">
          <mxGeometry width="50" height="50" relative="1" as="geometry">
            <mxPoint x="820" y="720" as="sourcePoint" />
            <mxPoint x="1070" y="720" as="targetPoint" />
          </mxGeometry>
        </mxCell>
        <mxCell id="91VObT-NkFJwBAb2Qbbx-78" value="&lt;font style=&quot;font-size: 16px;&quot;&gt;Similarity Model&lt;/font&gt;" style="text;html=1;align=center;verticalAlign=middle;resizable=0;points=[];autosize=1;strokeColor=none;fillColor=none;" vertex="1" parent="1">
          <mxGeometry x="870" y="370" width="140" height="30" as="geometry" />
        </mxCell>
        <mxCell id="91VObT-NkFJwBAb2Qbbx-79" value="&lt;font style=&quot;font-size: 14px;&quot;&gt;&lt;b&gt;Victim Paragraph&lt;/b&gt;&lt;/font&gt;" style="rounded=1;whiteSpace=wrap;html=1;arcSize=5;" vertex="1" parent="1">
          <mxGeometry x="-20" y="320" width="140" height="110" as="geometry" />
        </mxCell>
        <mxCell id="91VObT-NkFJwBAb2Qbbx-82" style="edgeStyle=orthogonalEdgeStyle;rounded=0;orthogonalLoop=1;jettySize=auto;html=1;exitX=1;exitY=0.5;exitDx=0;exitDy=0;entryX=0;entryY=0.5;entryDx=0;entryDy=0;" edge="1" parent="1" source="91VObT-NkFJwBAb2Qbbx-80" target="91VObT-NkFJwBAb2Qbbx-12">
          <mxGeometry relative="1" as="geometry" />
        </mxCell>
        <mxCell id="91VObT-NkFJwBAb2Qbbx-106" style="edgeStyle=orthogonalEdgeStyle;rounded=0;orthogonalLoop=1;jettySize=auto;html=1;exitX=1;exitY=0.5;exitDx=0;exitDy=0;entryX=0;entryY=0.5;entryDx=0;entryDy=0;" edge="1" parent="1" source="91VObT-NkFJwBAb2Qbbx-80" target="91VObT-NkFJwBAb2Qbbx-11">
          <mxGeometry relative="1" as="geometry" />
        </mxCell>
        <mxCell id="91VObT-NkFJwBAb2Qbbx-107" style="edgeStyle=orthogonalEdgeStyle;rounded=0;orthogonalLoop=1;jettySize=auto;html=1;exitX=1;exitY=0.5;exitDx=0;exitDy=0;entryX=0;entryY=0.5;entryDx=0;entryDy=0;" edge="1" parent="1" source="91VObT-NkFJwBAb2Qbbx-80" target="91VObT-NkFJwBAb2Qbbx-10">
          <mxGeometry relative="1" as="geometry" />
        </mxCell>
        <mxCell id="91VObT-NkFJwBAb2Qbbx-80" value="&lt;b&gt;&lt;font style=&quot;font-size: 14px;&quot;&gt;Accused Paragraph&lt;/font&gt;&lt;/b&gt;" style="rounded=1;whiteSpace=wrap;html=1;arcSize=5;" vertex="1" parent="1">
          <mxGeometry x="-20" y="490" width="140" height="110" as="geometry" />
        </mxCell>
        <mxCell id="91VObT-NkFJwBAb2Qbbx-83" style="edgeStyle=orthogonalEdgeStyle;rounded=0;orthogonalLoop=1;jettySize=auto;html=1;exitX=1;exitY=0.5;exitDx=0;exitDy=0;entryX=0;entryY=0.5;entryDx=0;entryDy=0;" edge="1" parent="1" source="91VObT-NkFJwBAb2Qbbx-81" target="91VObT-NkFJwBAb2Qbbx-13">
          <mxGeometry relative="1" as="geometry" />
        </mxCell>
        <mxCell id="91VObT-NkFJwBAb2Qbbx-81" value="&lt;font style=&quot;font-size: 14px;&quot;&gt;&lt;b&gt;Police Paragraph&lt;/b&gt;&lt;/font&gt;" style="rounded=1;whiteSpace=wrap;html=1;arcSize=5;" vertex="1" parent="1">
          <mxGeometry x="-20" y="640" width="140" height="110" as="geometry" />
        </mxCell>
        <mxCell id="91VObT-NkFJwBAb2Qbbx-112" style="edgeStyle=orthogonalEdgeStyle;rounded=0;orthogonalLoop=1;jettySize=auto;html=1;exitX=1;exitY=0.5;exitDx=0;exitDy=0;entryX=0.007;entryY=0.539;entryDx=0;entryDy=0;entryPerimeter=0;" edge="1" parent="1">
          <mxGeometry relative="1" as="geometry">
            <mxPoint x="1358.88" y="493.2" as="sourcePoint" />
            <mxPoint x="1450" y="576.78" as="targetPoint" />
            <Array as="points">
              <mxPoint x="1400" y="493" />
              <mxPoint x="1400" y="577" />
            </Array>
          </mxGeometry>
        </mxCell>
        <mxCell id="91VObT-NkFJwBAb2Qbbx-86" value="" style="rounded=0;whiteSpace=wrap;html=1;" vertex="1" parent="1">
          <mxGeometry x="1170" y="430" width="190" height="130" as="geometry" />
        </mxCell>
        <mxCell id="91VObT-NkFJwBAb2Qbbx-88" value="&lt;font style=&quot;font-size: 14px;&quot;&gt;&lt;b&gt;[ 4,5 ]&lt;span style=&quot;white-space: pre;&quot;&gt;&#x9;&lt;/span&gt;&lt;span style=&quot;white-space: pre;&quot;&gt;&#x9;&lt;/span&gt;30%&lt;/b&gt;&lt;/font&gt;" style="rounded=0;whiteSpace=wrap;html=1;" vertex="1" parent="1">
          <mxGeometry x="1185" y="440" width="160" height="30" as="geometry" />
        </mxCell>
        <mxCell id="91VObT-NkFJwBAb2Qbbx-91" value="" style="endArrow=none;html=1;rounded=0;entryX=0.5;entryY=0;entryDx=0;entryDy=0;exitX=0.5;exitY=1;exitDx=0;exitDy=0;" edge="1" parent="1" source="91VObT-NkFJwBAb2Qbbx-88" target="91VObT-NkFJwBAb2Qbbx-88">
          <mxGeometry width="50" height="50" relative="1" as="geometry">
            <mxPoint x="1080" y="600" as="sourcePoint" />
            <mxPoint x="1130" y="550" as="targetPoint" />
          </mxGeometry>
        </mxCell>
        <mxCell id="91VObT-NkFJwBAb2Qbbx-92" value="&lt;font style=&quot;font-size: 14px;&quot;&gt;&lt;b&gt;[ 2,8 ]&lt;span style=&quot;white-space: pre;&quot;&gt;&#x9;&lt;/span&gt;&lt;span style=&quot;white-space: pre;&quot;&gt;&#x9;&lt;/span&gt;45%&lt;/b&gt;&lt;/font&gt;" style="rounded=0;whiteSpace=wrap;html=1;" vertex="1" parent="1">
          <mxGeometry x="1185" y="480" width="160" height="30" as="geometry" />
        </mxCell>
        <mxCell id="91VObT-NkFJwBAb2Qbbx-93" value="&lt;font style=&quot;font-size: 14px;&quot;&gt;&lt;b&gt;[ 8,5 ]&lt;span style=&quot;white-space: pre;&quot;&gt;&#x9;&lt;/span&gt;&lt;span style=&quot;white-space: pre;&quot;&gt;&#x9;&lt;/span&gt;70%&lt;/b&gt;&lt;/font&gt;" style="rounded=0;whiteSpace=wrap;html=1;" vertex="1" parent="1">
          <mxGeometry x="1185" y="520" width="160" height="30" as="geometry" />
        </mxCell>
        <mxCell id="91VObT-NkFJwBAb2Qbbx-95" value="" style="endArrow=none;html=1;rounded=0;exitX=0.5;exitY=1;exitDx=0;exitDy=0;" edge="1" parent="1" target="91VObT-NkFJwBAb2Qbbx-92">
          <mxGeometry width="50" height="50" relative="1" as="geometry">
            <mxPoint x="1275" y="480" as="sourcePoint" />
            <mxPoint x="1275" y="450" as="targetPoint" />
          </mxGeometry>
        </mxCell>
        <mxCell id="91VObT-NkFJwBAb2Qbbx-96" value="" style="endArrow=none;html=1;rounded=0;entryX=0.5;entryY=0;entryDx=0;entryDy=0;exitX=0.5;exitY=1;exitDx=0;exitDy=0;" edge="1" parent="1" source="91VObT-NkFJwBAb2Qbbx-92" target="91VObT-NkFJwBAb2Qbbx-92">
          <mxGeometry width="50" height="50" relative="1" as="geometry">
            <mxPoint x="1200" y="420" as="sourcePoint" />
            <mxPoint x="1250" y="370" as="targetPoint" />
          </mxGeometry>
        </mxCell>
        <mxCell id="91VObT-NkFJwBAb2Qbbx-97" value="" style="endArrow=none;html=1;rounded=0;entryX=0.5;entryY=0;entryDx=0;entryDy=0;exitX=0.5;exitY=1;exitDx=0;exitDy=0;" edge="1" parent="1" source="91VObT-NkFJwBAb2Qbbx-93" target="91VObT-NkFJwBAb2Qbbx-93">
          <mxGeometry width="50" height="50" relative="1" as="geometry">
            <mxPoint x="1200" y="420" as="sourcePoint" />
            <mxPoint x="1250" y="370" as="targetPoint" />
          </mxGeometry>
        </mxCell>
        <mxCell id="91VObT-NkFJwBAb2Qbbx-113" style="edgeStyle=orthogonalEdgeStyle;rounded=0;orthogonalLoop=1;jettySize=auto;html=1;exitX=1;exitY=0.5;exitDx=0;exitDy=0;entryX=-0.016;entryY=0.534;entryDx=0;entryDy=0;entryPerimeter=0;" edge="1" parent="1" source="91VObT-NkFJwBAb2Qbbx-98" target="91VObT-NkFJwBAb2Qbbx-108">
          <mxGeometry relative="1" as="geometry">
            <mxPoint x="1450" y="580" as="targetPoint" />
            <Array as="points">
              <mxPoint x="1400" y="645" />
              <mxPoint x="1400" y="578" />
            </Array>
          </mxGeometry>
        </mxCell>
        <mxCell id="91VObT-NkFJwBAb2Qbbx-98" value="" style="rounded=0;whiteSpace=wrap;html=1;" vertex="1" parent="1">
          <mxGeometry x="1170" y="580" width="190" height="130" as="geometry" />
        </mxCell>
        <mxCell id="91VObT-NkFJwBAb2Qbbx-99" value="&lt;font style=&quot;font-size: 14px;&quot;&gt;&lt;b&gt;[ 3,6 ]&lt;span style=&quot;white-space: pre;&quot;&gt;&#x9;&lt;/span&gt;&lt;span style=&quot;white-space: pre;&quot;&gt;&#x9;&lt;/span&gt;33%&lt;/b&gt;&lt;/font&gt;" style="rounded=0;whiteSpace=wrap;html=1;" vertex="1" parent="1">
          <mxGeometry x="1185" y="590" width="160" height="30" as="geometry" />
        </mxCell>
        <mxCell id="91VObT-NkFJwBAb2Qbbx-100" value="" style="endArrow=none;html=1;rounded=0;entryX=0.5;entryY=0;entryDx=0;entryDy=0;exitX=0.5;exitY=1;exitDx=0;exitDy=0;" edge="1" parent="1" source="91VObT-NkFJwBAb2Qbbx-99" target="91VObT-NkFJwBAb2Qbbx-99">
          <mxGeometry width="50" height="50" relative="1" as="geometry">
            <mxPoint x="1080" y="750" as="sourcePoint" />
            <mxPoint x="1130" y="700" as="targetPoint" />
          </mxGeometry>
        </mxCell>
        <mxCell id="91VObT-NkFJwBAb2Qbbx-101" value="&lt;font style=&quot;font-size: 14px;&quot;&gt;&lt;b&gt;[ 2,7 ]&lt;span style=&quot;white-space: pre;&quot;&gt;&#x9;&lt;/span&gt;&lt;span style=&quot;white-space: pre;&quot;&gt;&#x9;&lt;/span&gt;48%&lt;/b&gt;&lt;/font&gt;" style="rounded=0;whiteSpace=wrap;html=1;" vertex="1" parent="1">
          <mxGeometry x="1185" y="630" width="160" height="30" as="geometry" />
        </mxCell>
        <mxCell id="91VObT-NkFJwBAb2Qbbx-102" value="&lt;font style=&quot;font-size: 14px;&quot;&gt;&lt;b&gt;[ 2,9 ]&lt;span style=&quot;white-space: pre;&quot;&gt;&#x9;&lt;/span&gt;&lt;span style=&quot;white-space: pre;&quot;&gt;&#x9;&lt;/span&gt;67%&lt;/b&gt;&lt;/font&gt;" style="rounded=0;whiteSpace=wrap;html=1;" vertex="1" parent="1">
          <mxGeometry x="1185" y="670" width="160" height="30" as="geometry" />
        </mxCell>
        <mxCell id="91VObT-NkFJwBAb2Qbbx-103" value="" style="endArrow=none;html=1;rounded=0;exitX=0.5;exitY=1;exitDx=0;exitDy=0;" edge="1" parent="1" target="91VObT-NkFJwBAb2Qbbx-101">
          <mxGeometry width="50" height="50" relative="1" as="geometry">
            <mxPoint x="1275" y="630" as="sourcePoint" />
            <mxPoint x="1275" y="600" as="targetPoint" />
          </mxGeometry>
        </mxCell>
        <mxCell id="91VObT-NkFJwBAb2Qbbx-104" value="" style="endArrow=none;html=1;rounded=0;entryX=0.5;entryY=0;entryDx=0;entryDy=0;exitX=0.5;exitY=1;exitDx=0;exitDy=0;" edge="1" parent="1" source="91VObT-NkFJwBAb2Qbbx-101" target="91VObT-NkFJwBAb2Qbbx-101">
          <mxGeometry width="50" height="50" relative="1" as="geometry">
            <mxPoint x="1200" y="570" as="sourcePoint" />
            <mxPoint x="1250" y="520" as="targetPoint" />
          </mxGeometry>
        </mxCell>
        <mxCell id="91VObT-NkFJwBAb2Qbbx-105" value="" style="endArrow=none;html=1;rounded=0;entryX=0.5;entryY=0;entryDx=0;entryDy=0;exitX=0.5;exitY=1;exitDx=0;exitDy=0;" edge="1" parent="1" source="91VObT-NkFJwBAb2Qbbx-102" target="91VObT-NkFJwBAb2Qbbx-102">
          <mxGeometry width="50" height="50" relative="1" as="geometry">
            <mxPoint x="1200" y="570" as="sourcePoint" />
            <mxPoint x="1250" y="520" as="targetPoint" />
          </mxGeometry>
        </mxCell>
        <mxCell id="91VObT-NkFJwBAb2Qbbx-115" style="edgeStyle=orthogonalEdgeStyle;rounded=0;orthogonalLoop=1;jettySize=auto;html=1;exitX=1;exitY=0.5;exitDx=0;exitDy=0;" edge="1" parent="1" source="91VObT-NkFJwBAb2Qbbx-108" target="91VObT-NkFJwBAb2Qbbx-116">
          <mxGeometry relative="1" as="geometry">
            <mxPoint x="1670" y="510" as="targetPoint" />
          </mxGeometry>
        </mxCell>
        <mxCell id="91VObT-NkFJwBAb2Qbbx-118" style="edgeStyle=orthogonalEdgeStyle;rounded=0;orthogonalLoop=1;jettySize=auto;html=1;exitX=1;exitY=0.5;exitDx=0;exitDy=0;entryX=0;entryY=0.5;entryDx=0;entryDy=0;" edge="1" parent="1" source="91VObT-NkFJwBAb2Qbbx-108" target="91VObT-NkFJwBAb2Qbbx-117">
          <mxGeometry relative="1" as="geometry" />
        </mxCell>
        <mxCell id="91VObT-NkFJwBAb2Qbbx-121" style="edgeStyle=orthogonalEdgeStyle;rounded=0;orthogonalLoop=1;jettySize=auto;html=1;exitX=1;exitY=0.5;exitDx=0;exitDy=0;entryX=0;entryY=0.5;entryDx=0;entryDy=0;" edge="1" parent="1" source="91VObT-NkFJwBAb2Qbbx-108" target="91VObT-NkFJwBAb2Qbbx-119">
          <mxGeometry relative="1" as="geometry" />
        </mxCell>
        <mxCell id="91VObT-NkFJwBAb2Qbbx-122" style="edgeStyle=orthogonalEdgeStyle;rounded=0;orthogonalLoop=1;jettySize=auto;html=1;exitX=1;exitY=0.5;exitDx=0;exitDy=0;entryX=0;entryY=0.5;entryDx=0;entryDy=0;" edge="1" parent="1" source="91VObT-NkFJwBAb2Qbbx-108" target="91VObT-NkFJwBAb2Qbbx-120">
          <mxGeometry relative="1" as="geometry" />
        </mxCell>
        <mxCell id="91VObT-NkFJwBAb2Qbbx-108" value="&lt;font style=&quot;font-size: 15px;&quot;&gt;&lt;b&gt;Final Processing and Cleaning&lt;/b&gt;&lt;/font&gt;" style="rounded=1;whiteSpace=wrap;html=1;arcSize=3;" vertex="1" parent="1">
          <mxGeometry x="1450" y="460" width="160" height="220" as="geometry" />
        </mxCell>
        <mxCell id="91VObT-NkFJwBAb2Qbbx-111" style="edgeStyle=orthogonalEdgeStyle;rounded=0;orthogonalLoop=1;jettySize=auto;html=1;entryX=0.5;entryY=0;entryDx=0;entryDy=0;" edge="1" parent="1" source="91VObT-NkFJwBAb2Qbbx-110" target="91VObT-NkFJwBAb2Qbbx-108">
          <mxGeometry relative="1" as="geometry" />
        </mxCell>
        <mxCell id="91VObT-NkFJwBAb2Qbbx-110" value="&lt;font style=&quot;font-size: 13px;&quot;&gt;Sensitivity&lt;/font&gt;" style="rounded=1;whiteSpace=wrap;html=1;arcSize=8;" vertex="1" parent="1">
          <mxGeometry x="1475" y="370" width="110" height="40" as="geometry" />
        </mxCell>
        <mxCell id="91VObT-NkFJwBAb2Qbbx-116" value="Conflicting Statemen" style="rounded=0;whiteSpace=wrap;html=1;" vertex="1" parent="1">
          <mxGeometry x="1698.82" y="440" width="110" height="35" as="geometry" />
        </mxCell>
        <mxCell id="91VObT-NkFJwBAb2Qbbx-117" value="TruthFullness" style="rounded=0;whiteSpace=wrap;html=1;" vertex="1" parent="1">
          <mxGeometry x="1698.82" y="490" width="110" height="35" as="geometry" />
        </mxCell>
        <mxCell id="91VObT-NkFJwBAb2Qbbx-119" value="Conflicting Statemen" style="rounded=0;whiteSpace=wrap;html=1;" vertex="1" parent="1">
          <mxGeometry x="1699.41" y="637.5" width="110" height="35" as="geometry" />
        </mxCell>
        <mxCell id="91VObT-NkFJwBAb2Qbbx-120" value="TruthFullness" style="rounded=0;whiteSpace=wrap;html=1;" vertex="1" parent="1">
          <mxGeometry x="1699.41" y="687.5" width="110" height="35" as="geometry" />
        </mxCell>
        <mxCell id="91VObT-NkFJwBAb2Qbbx-123" value="" style="endArrow=none;dashed=1;html=1;dashPattern=1 3;strokeWidth=2;rounded=0;" edge="1" parent="1">
          <mxGeometry width="50" height="50" relative="1" as="geometry">
            <mxPoint x="1678.82" y="540" as="sourcePoint" />
            <mxPoint x="1678.82" y="420" as="targetPoint" />
          </mxGeometry>
        </mxCell>
        <mxCell id="91VObT-NkFJwBAb2Qbbx-124" value="" style="endArrow=none;dashed=1;html=1;dashPattern=1 3;strokeWidth=2;rounded=0;" edge="1" parent="1">
          <mxGeometry width="50" height="50" relative="1" as="geometry">
            <mxPoint x="1678.82" y="540" as="sourcePoint" />
            <mxPoint x="1828.82" y="540" as="targetPoint" />
          </mxGeometry>
        </mxCell>
        <mxCell id="91VObT-NkFJwBAb2Qbbx-125" value="" style="endArrow=none;dashed=1;html=1;dashPattern=1 3;strokeWidth=2;rounded=0;" edge="1" parent="1">
          <mxGeometry x="-0.0045" width="50" height="50" relative="1" as="geometry">
            <mxPoint x="1828.82" y="540" as="sourcePoint" />
            <mxPoint x="1828.82" y="420" as="targetPoint" />
            <mxPoint as="offset" />
          </mxGeometry>
        </mxCell>
        <mxCell id="91VObT-NkFJwBAb2Qbbx-126" value="" style="endArrow=none;dashed=1;html=1;dashPattern=1 3;strokeWidth=2;rounded=0;" edge="1" parent="1">
          <mxGeometry width="50" height="50" relative="1" as="geometry">
            <mxPoint x="1678.82" y="420" as="sourcePoint" />
            <mxPoint x="1828.82" y="420" as="targetPoint" />
          </mxGeometry>
        </mxCell>
        <mxCell id="91VObT-NkFJwBAb2Qbbx-127" value="" style="endArrow=none;dashed=1;html=1;dashPattern=1 3;strokeWidth=2;rounded=0;" edge="1" parent="1">
          <mxGeometry width="50" height="50" relative="1" as="geometry">
            <mxPoint x="1679.41" y="620" as="sourcePoint" />
            <mxPoint x="1829.41" y="620" as="targetPoint" />
          </mxGeometry>
        </mxCell>
        <mxCell id="91VObT-NkFJwBAb2Qbbx-128" value="" style="endArrow=none;dashed=1;html=1;dashPattern=1 3;strokeWidth=2;rounded=0;" edge="1" parent="1">
          <mxGeometry width="50" height="50" relative="1" as="geometry">
            <mxPoint x="1679.41" y="740" as="sourcePoint" />
            <mxPoint x="1829.41" y="740" as="targetPoint" />
          </mxGeometry>
        </mxCell>
        <mxCell id="91VObT-NkFJwBAb2Qbbx-131" value="" style="endArrow=none;dashed=1;html=1;dashPattern=1 3;strokeWidth=2;rounded=0;" edge="1" parent="1">
          <mxGeometry width="50" height="50" relative="1" as="geometry">
            <mxPoint x="1829.41" y="740" as="sourcePoint" />
            <mxPoint x="1829.41" y="620" as="targetPoint" />
          </mxGeometry>
        </mxCell>
        <mxCell id="91VObT-NkFJwBAb2Qbbx-132" value="" style="endArrow=none;dashed=1;html=1;dashPattern=1 3;strokeWidth=2;rounded=0;" edge="1" parent="1">
          <mxGeometry width="50" height="50" relative="1" as="geometry">
            <mxPoint x="1679.41" y="730" as="sourcePoint" />
            <mxPoint x="1679.41" y="610" as="targetPoint" />
            <mxPoint as="offset" />
          </mxGeometry>
        </mxCell>
        <mxCell id="91VObT-NkFJwBAb2Qbbx-133" value="&lt;font style=&quot;font-size: 15px;&quot;&gt;&lt;b&gt;Accused&lt;/b&gt;&lt;/font&gt;" style="text;html=1;align=center;verticalAlign=middle;resizable=0;points=[];autosize=1;strokeColor=none;fillColor=none;" vertex="1" parent="1">
          <mxGeometry x="1708.82" y="580" width="90" height="30" as="geometry" />
        </mxCell>
        <mxCell id="91VObT-NkFJwBAb2Qbbx-134" value="&lt;span style=&quot;font-size: 15px;&quot;&gt;&lt;b&gt;Victim&lt;/b&gt;&lt;/span&gt;" style="text;html=1;align=center;verticalAlign=middle;resizable=0;points=[];autosize=1;strokeColor=none;fillColor=none;" vertex="1" parent="1">
          <mxGeometry x="1718.82" y="375" width="70" height="30" as="geometry" />
        </mxCell>
      </root>
    </mxGraphModel>
  </diagram>
</mxfile>
